<svg xmlns="http://www.w3.org/2000/svg" viewBox="11999 5281 160 38.637">
  <defs>
    <style>
      .cls-1 {
        fill: #fff;
      }

      .cls-2 {
        fill: #00d198;
      }
    </style>
  </defs>
  <g id="Group_5297" data-name="Group 5297" transform="translate(11784 5248)">
    <path id="Union_35" data-name="Union 35" class="cls-1" d="M60.88,18.724v2.035H56.5V0H60.88V7.734a5.6,5.6,0,0,1,4.785-2.442c3.563,0,6.922,2.747,6.922,7.937,0,5.088-3.359,7.937-6.922,7.937A6.644,6.644,0,0,1,60.88,18.724Zm0-5.5c0,2.544,1.73,4.172,3.665,4.172a4.023,4.023,0,0,0,3.767-4.274,3.867,3.867,0,0,0-3.767-4.172C62.509,8.955,60.88,10.685,60.88,13.229Zm-18.325,5.5v2.035H38.177V0h4.377V7.734A5.6,5.6,0,0,1,47.34,5.292c3.563,0,6.923,2.747,6.923,7.937,0,5.088-3.36,7.937-6.923,7.937A6.271,6.271,0,0,1,42.555,18.724Zm-.1-5.5c0,2.544,1.731,4.172,3.665,4.172a4.024,4.024,0,0,0,3.767-4.274,3.867,3.867,0,0,0-3.767-4.172C44.082,8.955,42.453,10.685,42.453,13.229ZM21.277,16.282c0-3.358,2.546-4.885,6.109-4.885a13.253,13.253,0,0,1,3.767.611V11.7c0-1.832-1.119-2.748-3.257-2.748a10.887,10.887,0,0,0-4.174.814L22.6,6.513a14.119,14.119,0,0,1,5.9-1.221A7.089,7.089,0,0,1,33.7,7.021a6.759,6.759,0,0,1,1.629,4.885v8.853H31.153V19.131a6.011,6.011,0,0,1-4.581,1.934C23.62,21.065,21.277,19.437,21.277,16.282Zm4.276-.1c0,1.119,1.019,1.831,2.342,1.831,1.934,0,3.359-1.119,3.359-2.645v-.713a7.3,7.3,0,0,0-2.749-.61C26.673,14.043,25.553,14.755,25.553,16.18Zm56.4-3.054a7.611,7.611,0,0,1,7.533-7.937c5.09,0,7.432,3.969,7.432,8.242a4.563,4.563,0,0,1-.1,1.119H86.23A3.559,3.559,0,0,0,90,17.5a4.777,4.777,0,0,0,3.665-1.526l2.444,2.239a8.021,8.021,0,0,1-14.151-5.088Zm4.276-1.221h6.515c-.306-1.934-1.425-3.256-3.258-3.256S86.535,9.972,86.23,11.905ZM0,10.786A10.174,10.174,0,0,1,10.486.508a11.1,11.1,0,0,1,7.839,2.747L15.475,6.512a7.225,7.225,0,0,0-5.192-2.034c-3.156,0-5.7,2.849-5.7,6.309A5.968,5.968,0,0,0,10.588,17.1a6.984,6.984,0,0,0,4.174-1.221v-2.85H10.385V9.26h8.653v8.65a13.008,13.008,0,0,1-8.552,3.154C4.276,21.064,0,16.79,0,10.786Zm75.133,9.973V0H79.51V20.759Zm24.23,0V5.494h4.378V8.547c.917-2.137,2.342-3.46,4.887-3.358V9.768h-.2c-2.851,0-4.683,1.729-4.683,5.393v5.6Z" transform="translate(266.373 40.683)"/>
    <path id="Union_4" class="cls-2" d="M10.485,36.531a12.674,12.674,0,0,1-8.552,1.832c2.24.2,3.665-2.646,3.665-5.393a19.324,19.324,0,1,1,27.386,0A19.165,19.165,0,0,1,10.485,36.531Z" transform="translate(214.963 32.95)"/>
    <path id="G" class="cls-1" d="M19.328,26.35a9.071,9.071,0,0,0,5.9-2.239v-6H19.226v2.646h3.054v1.933a4.676,4.676,0,0,1-2.851.814,4.388,4.388,0,0,1-.2-8.751,5.525,5.525,0,0,1,3.665,1.425l1.934-2.34a7.766,7.766,0,0,0-5.5-1.933A7.019,7.019,0,0,0,12.1,18.922v.2a7.02,7.02,0,0,0,6.719,7.225Z" transform="translate(215.18 33.159)"/>
  </g>
</svg>
