<svg xmlns="http://www.w3.org/2000/svg" xmlns:xlink="http://www.w3.org/1999/xlink" viewBox="10909 40 240.001 90.856">
  <defs>
    <style>
      .cls-1 {
        fill: #565656;
      }

      .cls-2 {
        fill: url(#linear-gradient);
      }

      .cls-3 {
        fill: #c18b59;
      }

      .cls-4 {
        fill: #d3a172;
      }

      .cls-5 {
        fill: #ae6224;
      }

      .cls-6 {
        fill: #ffecde;
      }

      .cls-10, .cls-11, .cls-12, .cls-7, .cls-8, .cls-9 {
        fill: #a0693d;
      }

      .cls-7 {
        opacity: 0.4;
      }

      .cls-8 {
        opacity: 0.5;
      }

      .cls-9 {
        opacity: 0.2;
      }

      .cls-11 {
        opacity: 0.7;
      }

      .cls-12 {
        opacity: 0.6;
      }

      .cls-13 {
        fill: #1db400;
        opacity: 0.29;
      }

      .cls-14 {
        fill: #3fe8c0;
        opacity: 0.24;
      }

      .cls-15 {
        fill: #2b8552;
      }

      .cls-16 {
        fill: #009365;
      }

      .cls-17 {
        fill: #00d198;
      }

      .cls-18 {
        fill: none;
      }

      .cls-19 {
        fill: #fff;
      }

      .cls-20 {
        fill: #32f9bb;
      }

      .cls-21, .cls-22 {
        fill: #06724e;
      }

      .cls-22 {
        opacity: 0.15;
      }

      .cls-23 {
        fill: #90e8ad;
        opacity: 0.9;
      }

      .cls-24 {
        fill: #438a55;
        opacity: 0.64;
      }

      .cls-25 {
        filter: url(#Path_3265);
      }
    </style>
    <linearGradient id="linear-gradient" x1="0.234" y1="0.336" x2="0.72" y2="0.812" gradientUnits="objectBoundingBox">
      <stop offset="0" stop-color="#d3a172"/>
      <stop offset="0.483" stop-color="#f2d6bb"/>
      <stop offset="1" stop-color="#c1762f"/>
    </linearGradient>
    <filter id="Path_3265" x="10922.176" y="64.882" width="53.999" height="56.182" filterUnits="userSpaceOnUse">
      <feOffset dy="5" input="SourceAlpha"/>
      <feGaussianBlur stdDeviation="4.5" result="blur"/>
      <feFlood flood-opacity="0.569"/>
      <feComposite operator="in" in2="blur"/>
      <feComposite in="SourceGraphic"/>
    </filter>
  </defs>
  <g id="Group_5028" data-name="Group 5028" transform="translate(727 -193)">
    <path id="Union_85" data-name="Union 85" class="cls-1" d="M50.684,57.959l1.7-2.749a8.591,8.591,0,0,0,5.254,2.1c1.7,0,2.506-.728,2.506-1.617,0-2.506-8.973-.485-8.973-6.386,0-2.506,2.183-4.77,6.225-4.77a9.282,9.282,0,0,1,6.062,2.1l-1.617,2.749a6.411,6.411,0,0,0-4.446-1.779c-1.455,0-2.344.647-2.344,1.537,0,2.263,8.972.4,8.972,6.466,0,2.749-2.344,4.85-6.548,4.85A11.332,11.332,0,0,1,50.684,57.959Zm-35-2.668c0-3.557,2.829-4.85,5.254-4.85a6.028,6.028,0,0,1,4.769,1.86V50.28c0-1.536-1.293-2.506-3.314-2.506a6.363,6.363,0,0,0-4.446,1.778L16.41,46.884a9.94,9.94,0,0,1,6.628-2.344c3.475,0,6.628,1.374,6.628,5.739v9.781H25.705v-1.7a6.316,6.316,0,0,1-4.769,1.94A5.018,5.018,0,0,1,15.682,55.291Zm4.041.081c0,1.374,1.294,2.183,2.829,2.183a3.592,3.592,0,0,0,3.152-1.294V54.4a3.92,3.92,0,0,0-3.152-1.294C21.017,53.109,19.724,53.917,19.724,55.372Zm17.865,2.506v1.94H33.627V39.044h3.961v7.679a5.931,5.931,0,0,1,4.688-2.344c3.88,0,6.709,2.991,6.709,7.922,0,5.012-2.91,7.922-6.709,7.922A5.931,5.931,0,0,1,37.589,57.879Zm.081-8.165v5.336a4.366,4.366,0,0,0,3.395,1.7c2.345,0,3.881-1.778,3.881-4.365,0-2.668-1.536-4.446-3.881-4.446A4.208,4.208,0,0,0,37.669,49.714ZM.647,59.9V39.044H5.093V56.019H13.9V59.9ZM113.088,18.349A10.374,10.374,0,0,1,123.6,7.68c6.062,0,10.185,4.527,10.185,11.236v1.213H118.666c.324,2.586,2.425,4.688,5.82,4.688A8.487,8.487,0,0,0,129.9,22.8l2.344,3.476A12.731,12.731,0,0,1,123.84,29.1C117.7,29.02,113.088,24.9,113.088,18.349Zm5.5-1.859h10.024a4.736,4.736,0,0,0-5.012-4.527A4.907,4.907,0,0,0,118.586,16.491ZM0,14.55C0,5.659,6.709,0,14.955,0A13.081,13.081,0,0,1,26.6,6.305L21.664,8.972a8.023,8.023,0,0,0-6.628-3.638c-5.093,0-8.811,3.881-8.811,9.215s3.718,9.215,8.811,9.215a9.44,9.44,0,0,0,5.982-2.183v-3.4H13.581V12.934H27V23.685A15.463,15.463,0,0,1,15.036,29.02h-.173C6.616,29.021,0,23.3,0,14.55ZM84.392,25.868v2.586H79.057V.485h5.335V10.832A7.806,7.806,0,0,1,90.7,7.68c5.173,0,8.972,4.041,8.972,10.67,0,6.791-3.88,10.671-8.972,10.671A8.042,8.042,0,0,1,84.392,25.868Zm0-10.994v7.194A5.941,5.941,0,0,0,89,24.331c3.153,0,5.173-2.344,5.173-5.9s-2.1-5.9-5.173-5.9A6.148,6.148,0,0,0,84.392,14.873ZM59.737,25.868v2.586H54.4V.485h5.335V10.832A7.806,7.806,0,0,1,66.043,7.68c5.173,0,8.972,4.041,8.972,10.67,0,6.791-3.88,10.671-8.972,10.671A8.042,8.042,0,0,1,59.737,25.868Zm0-10.994v7.194a5.941,5.941,0,0,0,4.607,2.263c3.153,0,5.174-2.344,5.174-5.9s-2.1-5.9-5.174-5.9A6.148,6.148,0,0,0,59.737,14.873Zm-29.5,7.437c0-4.77,3.8-6.548,7.032-6.548a8.456,8.456,0,0,1,6.467,2.506V15.52c0-2.1-1.778-3.395-4.446-3.395a8.389,8.389,0,0,0-5.9,2.425l-2.021-3.557A13.407,13.407,0,0,1,40.256,7.76c4.608,0,8.892,1.859,8.892,7.679v13.1H43.732v-2.1a8.5,8.5,0,0,1-6.467,2.587C34.032,29.02,30.233,26.837,30.233,22.311Zm5.416.162c0,1.859,1.7,2.991,3.8,2.991a5.535,5.535,0,0,0,4.284-1.778V21.179A5.274,5.274,0,0,0,39.448,19.4C37.346,19.4,35.648,20.532,35.648,22.472Zm102.014,6.062V8.245H143v2.749a8.922,8.922,0,0,1,6.466-3.314v5.254a7.252,7.252,0,0,0-1.455-.162A6.872,6.872,0,0,0,143,15.116V28.535Zm-33.95,0V.485h5.335v28.05Z" transform="translate(10272.536 251.023)"/>
    <g id="Group_5025" data-name="Group 5025" transform="translate(10232.867 233)">
      <g id="Group_5015" data-name="Group 5015" transform="translate(0 0)">
        <g id="Group_5012" data-name="Group 5012" transform="translate(0 0)">
          <path id="Path_3255" data-name="Path 3255" class="cls-2" d="M79.142,36.229,65.4,22.487,83.184.5,101.21,18.526Z" transform="translate(-63.401 2.165)"/>
          <ellipse id="Ellipse_181" data-name="Ellipse 181" class="cls-3" cx="3.718" cy="12.772" rx="3.718" ry="12.772" transform="translate(17.086 5.259) rotate(-45)"/>
          <ellipse id="Ellipse_182" data-name="Ellipse 182" class="cls-4" cx="2.829" cy="9.7" rx="2.829" ry="9.7" transform="translate(0 26.687) rotate(-45)"/>
        </g>
        <g id="Group_5013" data-name="Group 5013" transform="translate(19.27 2.584)">
          <path id="Path_3256" data-name="Path 3256" class="cls-5" d="M105.3,18.507a1.876,1.876,0,0,1-1.7.485,14.079,14.079,0,0,1-1.778-.4,14.5,14.5,0,0,1-3.153-1.617,36.722,36.722,0,0,1-5.5-4.446,36.722,36.722,0,0,1-4.446-5.5,14.5,14.5,0,0,1-1.617-3.153A11.6,11.6,0,0,1,86.794,2.1,1.876,1.876,0,0,1,87.279.4a1.88,1.88,0,0,0-.323,1.617,9.449,9.449,0,0,0,.485,1.617,17.926,17.926,0,0,0,1.7,2.991,39.9,39.9,0,0,0,4.446,5.335,35.387,35.387,0,0,0,5.335,4.446,21.875,21.875,0,0,0,2.991,1.7,6.159,6.159,0,0,0,1.617.485A1.573,1.573,0,0,0,105.3,18.507Z" transform="translate(-86.766 -0.4)"/>
        </g>
        <g id="Group_5014" data-name="Group 5014" transform="translate(1.725 24.814)">
          <path id="Path_3257" data-name="Path 3257" class="cls-6" d="M70.993,37.358a31.991,31.991,0,0,1-3.8-4.284,20.125,20.125,0,0,1-1.536-2.425,3.98,3.98,0,0,1-.485-1.374,1.622,1.622,0,0,1,.081-1.374,2.636,2.636,0,0,0,0,1.374,6.257,6.257,0,0,0,.566,1.293,23.413,23.413,0,0,0,1.536,2.344,24.354,24.354,0,0,0,1.778,2.263C69.781,35.9,70.347,36.63,70.993,37.358Z" transform="translate(-65.061 -27.9)"/>
        </g>
        <ellipse id="Ellipse_197" data-name="Ellipse 197" class="cls-7" cx="0.404" cy="0.728" rx="0.404" ry="0.728" transform="translate(35.737 18.198) rotate(-40.823)"/>
        <ellipse id="Ellipse_209" data-name="Ellipse 209" class="cls-8" cx="0.404" cy="0.728" rx="0.404" ry="0.728" transform="translate(26.037 13.348) rotate(-40.823)"/>
        <ellipse id="Ellipse_210" data-name="Ellipse 210" class="cls-9" cx="0.404" cy="0.728" rx="0.404" ry="0.728" transform="translate(33.312 14.156) rotate(-40.823)"/>
      </g>
      <circle id="Ellipse_190" data-name="Ellipse 190" class="cls-10" cx="0.808" cy="0.808" r="0.808" transform="translate(17.519 16.892)"/>
      <circle id="Ellipse_208" data-name="Ellipse 208" class="cls-8" cx="0.808" cy="0.808" r="0.808" transform="translate(26.411 21.742)"/>
      <circle id="Ellipse_207" data-name="Ellipse 207" class="cls-9" cx="0.808" cy="0.808" r="0.808" transform="translate(19.136 27.4)"/>
      <circle id="Ellipse_191" data-name="Ellipse 191" class="cls-7" cx="0.808" cy="0.808" r="0.808" transform="translate(31.585 21.661)"/>
      <circle id="Ellipse_192" data-name="Ellipse 192" class="cls-11" cx="0.808" cy="0.808" r="0.808" transform="translate(17.358 10.021)"/>
      <ellipse id="Ellipse_193" data-name="Ellipse 193" class="cls-11" cx="0.404" cy="0.808" rx="0.404" ry="0.808" transform="translate(30.414 15.52) rotate(-38.141)"/>
      <ellipse id="Ellipse_194" data-name="Ellipse 194" class="cls-12" cx="0.566" cy="1.213" rx="0.566" ry="1.213" transform="translate(24.41 9.731) rotate(-38.141)"/>
      <ellipse id="Ellipse_195" data-name="Ellipse 195" class="cls-7" cx="0.566" cy="1.213" rx="0.566" ry="1.213" transform="matrix(0.622, -0.783, 0.783, 0.622, 22.287, 4.972)"/>
      <ellipse id="Ellipse_196" data-name="Ellipse 196" class="cls-7" cx="0.485" cy="0.889" rx="0.485" ry="0.889" transform="translate(29.186 9.488) rotate(-40.823)"/>
    </g>
    <g id="Group_5024" data-name="Group 5024" transform="translate(10182 243.021)">
      <circle id="Ellipse_184" data-name="Ellipse 184" class="cls-13" cx="40.418" cy="40.418" r="40.418" transform="translate(0 0)"/>
      <circle id="Ellipse_185" data-name="Ellipse 185" class="cls-14" cx="37.588" cy="37.588" r="37.588" transform="translate(2.829 2.829)"/>
      <path id="Path_3262" data-name="Path 3262" class="cls-15" d="M38.613,11.571c-.889.162-1.859.323-2.748.485s-1.859.323-2.748.485a30.056,30.056,0,0,0-5.254,1.536,40.236,40.236,0,0,0-5.012,2.344c-.808.485-1.617.889-2.425,1.374L18,19.25a51,51,0,0,1,9.539-5.982,29.743,29.743,0,0,1,5.335-1.859c1.859-.485,3.638-.889,5.5-1.213h0a.745.745,0,0,1,.889.566.851.851,0,0,1-.647.808Z" transform="translate(-3.45 -9.711)"/>
      <path id="Path_3263" data-name="Path 3263" class="cls-16" d="M36.723,46.423c-17.3,7.6-26.665-13.231-30.637-4.446A37.089,37.089,0,0,0,3.5,55.72a37.6,37.6,0,0,0,75.177,1.455C78.447,48.761,50.546,40.361,36.723,46.423Z" transform="translate(-0.671 -15.383)"/>
      <path id="Path_3264" data-name="Path 3264" class="cls-17" d="M45.049,50.764C33.732,33.142,3.655,51.343,6.087,42.6A37.089,37.089,0,0,0,3.5,56.342,37.6,37.6,0,0,0,78.677,57.8C78.154,73.109,50.546,59.333,45.049,50.764Z" transform="translate(-0.671 -15.924)"/>
      <g id="Group_5022" data-name="Group 5022" transform="translate(2.813 38.917)">
        <g id="Group_5021" data-name="Group 5021">
          <rect id="Rectangle_703" data-name="Rectangle 703" class="cls-18" width="69.195" height="39.124"/>
        </g>
      </g>
      <g id="Group_5023" data-name="Group 5023" transform="translate(26.676 23.361)">
        <g class="cls-25" transform="matrix(1, 0, 0, 1, -10935.68, -73.38)">
          <path id="Path_3265-2" data-name="Path 3265" class="cls-19" d="M33,53.05c0-8.892,6.709-14.55,14.955-14.55a13.081,13.081,0,0,1,11.64,6.305l-4.931,2.668a8.021,8.021,0,0,0-6.629-3.638c-5.093,0-8.811,3.88-8.811,9.215s3.718,9.215,8.811,9.215a9.437,9.437,0,0,0,5.982-2.183v-3.4H46.58V51.434H60V62.346a15.463,15.463,0,0,1-11.964,5.335C39.79,67.6,33,61.861,33,53.05Z" transform="translate(10902.68 34.88)"/>
        </g>
      </g>
      <g id="Group_5027" data-name="Group 5027" transform="translate(8.003 30.232)">
        <circle id="Ellipse_186" data-name="Ellipse 186" class="cls-20" cx="1.617" cy="1.617" r="1.617" transform="translate(6.628 4.284)"/>
        <circle id="Ellipse_187" data-name="Ellipse 187" class="cls-20" cx="1.132" cy="1.132" r="1.132" transform="translate(19.401 32.9)"/>
        <circle id="Ellipse_188" data-name="Ellipse 188" class="cls-20" cx="1.132" cy="1.132" r="1.132" transform="translate(55.049 23.927)"/>
        <circle id="Ellipse_189" data-name="Ellipse 189" class="cls-21" cx="0.808" cy="0.808" r="0.808" transform="translate(56.181 5.82)"/>
        <circle id="Ellipse_198" data-name="Ellipse 198" class="cls-21" cx="0.808" cy="0.808" r="0.808" transform="translate(62.486 10.185)"/>
        <circle id="Ellipse_199" data-name="Ellipse 199" class="cls-21" cx="0.808" cy="0.808" r="0.808" transform="translate(36.78 1.698)"/>
        <circle id="Ellipse_200" data-name="Ellipse 200" class="cls-21" cx="0.485" cy="0.485" r="0.485" transform="translate(50.441)"/>
        <circle id="Ellipse_201" data-name="Ellipse 201" class="cls-22" cx="0.485" cy="0.485" r="0.485" transform="translate(40.336 31.607)"/>
        <circle id="Ellipse_202" data-name="Ellipse 202" class="cls-22" cx="1.293" cy="1.293" r="1.293" transform="translate(25.463 30.313)"/>
        <circle id="Ellipse_203" data-name="Ellipse 203" class="cls-22" cx="1.293" cy="1.293" r="1.293" transform="translate(0 11.398)"/>
        <circle id="Ellipse_204" data-name="Ellipse 204" class="cls-20" cx="1.132" cy="1.132" r="1.132" transform="translate(5.981 15.52)"/>
        <circle id="Ellipse_205" data-name="Ellipse 205" class="cls-20" cx="1.132" cy="1.132" r="1.132" transform="translate(48.744 34.517)"/>
        <circle id="Ellipse_206" data-name="Ellipse 206" class="cls-20" cx="0.808" cy="0.808" r="0.808" transform="translate(16.49 24.655)"/>
      </g>
    </g>
    <g id="Group_5026" data-name="Group 5026" transform="translate(10233.86 240.511)">
      <path id="Union_86" data-name="Union 86" class="cls-23" d="M8.962,22.552C2.363,15.954-1.425,9.044.5,7.119c.021-.021.044-.042.066-.062L.543,7.032,7.575,0C5.637,1.939,9.437,8.891,15.983,15.44c6.629,6.627,13.5,10.427,15.52,8.488L24.471,30.96l-.015-.015c-.021.023-.041.045-.063.067a1.98,1.98,0,0,1-1.455.5C20.04,31.513,14.395,27.986,8.962,22.552Z" transform="translate(0.059 0.409)"/>
      <g id="Group_5017" data-name="Group 5017" transform="translate(1.33 6.471)">
        <path id="Path_3259" data-name="Path 3259" class="cls-15" d="M66.447,14.662c.081.162.162.243.162.4s.081.323.081.485a4.557,4.557,0,0,0,.323.97,20.669,20.669,0,0,0,.889,1.94,35.1,35.1,0,0,0,2.263,3.718,56.643,56.643,0,0,0,5.578,6.79,56.8,56.8,0,0,1-5.9-6.548c-.889-1.213-1.7-2.344-2.506-3.638-.4-.647-.728-1.293-1.051-1.94a5.613,5.613,0,0,1-.4-1.051,1.576,1.576,0,0,1-.081-.647.645.645,0,0,1,.323-.647c.081,0,.162,0,.162.081Z" transform="translate(-65.8 -14.5)"/>
      </g>
      <g id="Group_5018" data-name="Group 5018" transform="translate(0 0.631)">
        <path id="Path_3260" data-name="Path 3260" class="cls-15" d="M71.628,7.538h0c-1.617,1.7-3.314,3.314-5.012,5.012L65.4,13.762c-.162.243-.4.4-.566.647a2.871,2.871,0,0,0-.323.728,6.765,6.765,0,0,0,.647,3.314A30.334,30.334,0,0,0,68.8,24.432a48.34,48.34,0,0,0,4.688,5.254,57.332,57.332,0,0,0,5.254,4.688,28.162,28.162,0,0,0,5.982,3.638,6.71,6.71,0,0,0,1.7.485,3,3,0,0,0,1.7-.081,3.8,3.8,0,0,0,.728-.485l.647-.647,1.213-1.213,5.012-4.931-5.012,5.012-1.213,1.213-.647.647a1.76,1.76,0,0,1-.728.566,3.041,3.041,0,0,1-1.7.081,6.71,6.71,0,0,1-1.7-.485,27.429,27.429,0,0,1-6.063-3.638q-2.789-2.183-5.335-4.608a57.332,57.332,0,0,1-4.688-5.254,28.492,28.492,0,0,1-3.718-5.982,6.31,6.31,0,0,1-.728-3.4,2.421,2.421,0,0,1,.323-.808,4.877,4.877,0,0,1,.647-.647l1.213-1.213,5.012-5.012h0C71.709,7.134,71.952,7.214,71.628,7.538Z" transform="translate(-64.155 -7.275)"/>
      </g>
      <path id="Path_3261" data-name="Path 3261" class="cls-24" d="M96.273,24.776l-2.779,2.248c-1.536.728-5.868-1.933-10.152-6.136-4.2-4.2-6.894-8.4-6.166-10.018l2.311-2.791C76.658,6.542,74.45,6.014,73.48,6.984c-1.94,1.778,1.859,8.811,8.407,15.359s13.5,10.347,15.44,8.488C98.3,29.86,97.809,27.605,96.273,24.776Z" transform="translate(-65.845 -6.495)"/>
    </g>
  </g>
</svg>
