<svg xmlns="http://www.w3.org/2000/svg" xmlns:xlink="http://www.w3.org/1999/xlink" viewBox="11279 373 220 444.853">
  <defs>
    <style>
      .cls-1 {
        opacity: 0.26;
      }

      .cls-2 {
        fill: #666;
      }

      .cls-3 {
        fill: #ecebea;
      }

      .cls-4 {
        fill: #f7f7f7;
      }

      .cls-5 {
        fill: url(#linear-gradient);
      }

      .cls-6 {
        fill: none;
      }

      .cls-7 {
        fill: #c2b7aa;
      }

      .cls-8 {
        fill: #d9c9b9;
      }

      .cls-9 {
        fill: #ddcdbb;
      }

      .cls-10 {
        fill: #e2d0be;
      }

      .cls-11 {
        fill: url(#linear-gradient-2);
      }

      .cls-12 {
        fill: #f1f1f1;
      }

      .cls-13 {
        fill: #2b2726;
      }

      .cls-14 {
        fill: #fff;
      }

      .cls-15 {
        fill: url(#radial-gradient);
      }

      .cls-16 {
        fill: url(#radial-gradient-2);
      }

      .cls-17 {
        fill: url(#linear-gradient-3);
      }

      .cls-18 {
        fill: url(#linear-gradient-4);
      }

      .cls-19 {
        fill: url(#linear-gradient-5);
      }

      .cls-20 {
        fill: #b6a08e;
      }

      .cls-21 {
        fill: url(#linear-gradient-6);
      }

      .cls-22 {
        fill: url(#linear-gradient-7);
      }

      .cls-23 {
        fill: url(#linear-gradient-8);
      }

      .cls-24 {
        fill: rgba(39,16,2,0.41);
      }
    </style>
    <linearGradient id="linear-gradient" x1="0.5" y1="0.996" x2="0.5" y2="0.004" gradientUnits="objectBoundingBox">
      <stop offset="0" stop-color="#f7f7f7"/>
      <stop offset="0.055" stop-color="#fefefe"/>
      <stop offset="0.214" stop-color="#fff"/>
      <stop offset="0.407" stop-color="#f7f7f7"/>
      <stop offset="0.593" stop-color="#f7f7f7"/>
      <stop offset="0.841" stop-color="#fff"/>
      <stop offset="0.951" stop-color="#fdfdfd"/>
      <stop offset="1" stop-color="#f7f7f7"/>
    </linearGradient>
    <linearGradient id="linear-gradient-2" x1="0.308" y1="0.93" x2="0.701" y2="0.047" gradientUnits="objectBoundingBox">
      <stop offset="0" stop-color="#fdefdf"/>
      <stop offset="0.401" stop-color="#432c17"/>
      <stop offset="0.764" stop-color="#775c43"/>
      <stop offset="1" stop-color="#feefdf"/>
    </linearGradient>
    <radialGradient id="radial-gradient" cx="88.911" cy="35.224" r="6.031" gradientTransform="translate(-0.003 -0.005)" gradientUnits="userSpaceOnUse">
      <stop offset="0" stop-color="#696969"/>
      <stop offset="1" stop-color="#232323"/>
    </radialGradient>
    <radialGradient id="radial-gradient-2" cx="0.755" cy="0.876" r="0.932" gradientTransform="translate(0 0)" gradientUnits="objectBoundingBox">
      <stop offset="0" stop-color="#1c1b1b"/>
      <stop offset="1" stop-color="#232323"/>
    </radialGradient>
    <linearGradient id="linear-gradient-3" x1="0.499" y1="0.99" x2="0.499" y2="-0.014" gradientUnits="objectBoundingBox">
      <stop offset="0" stop-color="#080808"/>
      <stop offset="0.258" stop-color="#3a3a3a"/>
      <stop offset="0.758" stop-color="#3a3a3a"/>
      <stop offset="1" stop-color="#080808"/>
    </linearGradient>
    <linearGradient id="linear-gradient-4" x1="0.473" y1="-0.001" x2="0.473" y2="1.004" gradientUnits="objectBoundingBox">
      <stop offset="0" stop-color="#64656b"/>
      <stop offset="0.066" stop-color="#b2b4b9"/>
      <stop offset="0.934" stop-color="#b8babf"/>
      <stop offset="1" stop-color="#67686e"/>
    </linearGradient>
    <linearGradient id="linear-gradient-5" x1="0.473" y1="-0.001" x2="0.473" y2="1.004" gradientUnits="objectBoundingBox">
      <stop offset="0" stop-color="#6f5944"/>
      <stop offset="0.055" stop-color="#f5e7d8"/>
      <stop offset="0.923" stop-color="#f5e7d8"/>
      <stop offset="1" stop-color="#725e4a"/>
    </linearGradient>
    <linearGradient id="linear-gradient-6" x1="0.497" y1="-0.001" x2="0.497" y2="0.997" xlink:href="#linear-gradient-5"/>
    <linearGradient id="linear-gradient-7" x1="0.497" y1="0.003" x2="0.497" y2="0.988" xlink:href="#linear-gradient-5"/>
    <linearGradient id="linear-gradient-8" x1="0.497" y1="0" x2="0.497" y2="1.008" xlink:href="#linear-gradient-5"/>
  </defs>
  <g id="Group_2917" data-name="Group 2917" transform="translate(11279 373)">
    <g id="Group_2104" data-name="Group 2104" class="cls-1" transform="translate(1.617)">
      <path id="Path_876" data-name="Path 876" class="cls-2" d="M218.835,412.5a32.322,32.322,0,0,1-32.353,32.353H34.423A32.322,32.322,0,0,1,2.07,412.5V32.353A32.267,32.267,0,0,1,34.423,0H186.482a32.322,32.322,0,0,1,32.353,32.353Z" transform="translate(-2.07 0)"/>
    </g>
    <g id="Group_2106" data-name="Group 2106" transform="translate(4.853 3.235)">
      <g id="Group_2105" data-name="Group 2105" transform="translate(0 0)">
        <path id="Path_877" data-name="Path 877" class="cls-3" d="M216.112,413.035a29.112,29.112,0,0,1-29.118,29.118H34.935A29.112,29.112,0,0,1,5.818,413.035V32.888A29.112,29.112,0,0,1,34.935,3.77H186.994a29.112,29.112,0,0,1,29.118,29.118Z" transform="translate(-5.818 -3.77)"/>
      </g>
    </g>
    <g id="Group_2108" data-name="Group 2108" transform="translate(6.471 4.853)">
      <g id="Group_2107" data-name="Group 2107" transform="translate(0 0)">
        <path id="Path_878" data-name="Path 878" class="cls-4" d="M214.757,412.5a28.5,28.5,0,0,1-28.309,28.309H36.007A28.5,28.5,0,0,1,7.7,412.5V33.97A28.5,28.5,0,0,1,36.007,5.661H186.448A28.5,28.5,0,0,1,214.757,33.97Z" transform="translate(-7.698 -5.661)"/>
      </g>
    </g>
    <path id="Path_879" data-name="Path 879" class="cls-5" d="M10.9,409.662V35.985c0-13.21,8.866-24.669,21.029-27.5C18.3,10.458,7.664,22,7.664,35.985V411.28c0,14.925,12.49,27.794,27.5,28.309C21.535,437.787,10.9,423.9,10.9,409.662ZM190.459,8.485c12.25,2.831,21.029,14.29,21.029,27.5V409.662c0,13.639-9.88,26.458-22.647,29.118,14.234-1.372,25.882-13.089,25.882-27.5V35.985C214.81,22,204.088,10.458,190.459,8.485Z" transform="translate(-1.194 -1.206)"/>
    <g id="Group_2121" data-name="Group 2121" transform="translate(1.618)">
      <g id="Group_2109" data-name="Group 2109" transform="translate(0)">
        <path id="Path_880" data-name="Path 880" class="cls-6" d="M186.994,3.77H34.935A29.112,29.112,0,0,0,5.818,32.888V413.035a29.112,29.112,0,0,0,29.118,29.118H186.994a29.112,29.112,0,0,0,29.118-29.118V32.888A29.112,29.112,0,0,0,186.994,3.77Z" transform="translate(-2.582 -0.535)"/>
        <path id="Path_881" data-name="Path 881" class="cls-7" d="M215.606,412.5a29.111,29.111,0,0,1-29.118,29.118H34.43A29.111,29.111,0,0,1,5.312,412.5V32.353A29.112,29.112,0,0,1,34.43,3.235H186.489a29.112,29.112,0,0,1,29.118,29.118ZM186.489,0H34.43A32.322,32.322,0,0,0,2.077,32.353V412.5A32.322,32.322,0,0,0,34.43,444.853H186.489A32.322,32.322,0,0,0,218.842,412.5V32.353A32.267,32.267,0,0,0,186.489,0Z" transform="translate(-2.077 0)"/>
      </g>
      <g id="Group_2114" data-name="Group 2114" transform="translate(0.809 0.809)">
        <path id="Path_890" data-name="Path 890" class="cls-6" d="M186.836,2.8H34.777A30.109,30.109,0,0,0,4.851,32.727V412.874c0,16.3,13.45,29.118,29.926,29.118H186.836c16.39,0,29.926-12.734,29.926-29.118V32.727A30.108,30.108,0,0,0,186.836,2.8Z" transform="translate(-3.233 -1.183)"/>
        <path id="Path_891" data-name="Path 891" class="cls-8" d="M216.553,412.649a30.108,30.108,0,0,1-29.926,29.927H34.568A30.109,30.109,0,0,1,4.641,412.649V32.5A30.108,30.108,0,0,1,34.568,2.575H186.627A30.109,30.109,0,0,1,216.553,32.5ZM186.627.958H34.568A31.275,31.275,0,0,0,3.024,32.5V412.649a31.275,31.275,0,0,0,31.544,31.544H186.627a31.275,31.275,0,0,0,31.544-31.544V32.5A31.275,31.275,0,0,0,186.627.958Z" transform="translate(-3.024 -0.958)"/>
      </g>
      <g id="Group_2115" data-name="Group 2115" transform="translate(0.809 0.809)">
        <path id="Path_892" data-name="Path 892" class="cls-6" d="M186.843,2.806H34.784A30.053,30.053,0,0,0,4.857,32.733V412.88a30.053,30.053,0,0,0,29.926,29.926H186.843a30.053,30.053,0,0,0,29.926-29.926V32.733A30.053,30.053,0,0,0,186.843,2.806Z" transform="translate(-3.24 -1.189)"/>
        <path id="Path_893" data-name="Path 893" class="cls-9" d="M216.547,412.643a30.053,30.053,0,0,1-29.926,29.927H34.561A30.053,30.053,0,0,1,4.635,412.643V32.5A30.053,30.053,0,0,1,34.561,2.569H186.62A30.053,30.053,0,0,1,216.547,32.5ZM186.62.952H34.561A31.383,31.383,0,0,0,3.017,32.5V412.643a31.383,31.383,0,0,0,31.544,31.544H186.62a31.383,31.383,0,0,0,31.544-31.544V32.5A31.383,31.383,0,0,0,186.62.952Z" transform="translate(-3.017 -0.952)"/>
      </g>
      <g id="Group_2116" data-name="Group 2116" transform="translate(0.809 0.809)">
        <path id="Path_894" data-name="Path 894" class="cls-6" d="M186.849,2.806H34.791A30,30,0,0,0,4.864,32.733V412.88a29.942,29.942,0,0,0,29.926,29.926H186.849a29.942,29.942,0,0,0,29.926-29.926V32.733A30,30,0,0,0,186.849,2.806Z" transform="translate(-3.246 -1.189)"/>
        <path id="Path_895" data-name="Path 895" class="cls-10" d="M216.54,412.631a29.942,29.942,0,0,1-29.926,29.926H34.555A30.053,30.053,0,0,1,4.628,412.631V32.484A30,30,0,0,1,34.555,2.557H186.613A29.942,29.942,0,0,1,216.54,32.484ZM186.613.939H34.555A31.383,31.383,0,0,0,3.01,32.484V412.631a31.383,31.383,0,0,0,31.544,31.544H186.613a31.383,31.383,0,0,0,31.544-31.544V32.484A31.492,31.492,0,0,0,186.613.939Z" transform="translate(-3.01 -0.939)"/>
      </g>
      <g id="Group_2120" data-name="Group 2120" transform="translate(0.809 1.618)">
        <path id="Path_902" data-name="Path 902" class="cls-6" d="M186.869,2.831H34.811A29.724,29.724,0,0,0,4.884,32.757V412.1c0,16.641,13.191,30.735,29.926,30.735H186.869c16.735,0,29.926-14.094,29.926-30.735V32.757A29.724,29.724,0,0,0,186.869,2.831Z" transform="translate(-3.266 -2.022)"/>
      </g>
    </g>
    <path id="Path_907" data-name="Path 907" class="cls-11" d="M141.837,481.866a16.828,16.828,0,0,1-16.985,16.985c-9.575,0-17.794-7.55-17.794-16.985,0-9.521,8.305-16.985,17.794-16.985A16.882,16.882,0,0,1,141.837,481.866Z" transform="translate(-14.851 -66.131)"/>
    <path id="Path_908" data-name="Path 908" class="cls-12" d="M140.468,482.128A15.331,15.331,0,0,1,125.1,497.5c-8.54,0-16.176-6.876-16.176-15.368S116.56,466.76,125.1,466.76A15.331,15.331,0,0,1,140.468,482.128Z" transform="translate(-15.101 -66.392)"/>
    <g id="Group_2125" data-name="Group 2125" transform="translate(107.574 9.706)">
      <path id="Path_910" data-name="Path 910" class="cls-13" d="M130.541,14.527a2.2,2.2,0,0,1-2.426,2.426c-1.553,0-3.235-.882-3.235-2.426a3.6,3.6,0,0,1,3.235-3.235C129.668,11.378,130.541,13.069,130.541,14.527Z" transform="translate(-124.879 -11.292)"/>
    </g>
    <g id="Group_2128" data-name="Group 2128" transform="translate(71.176 24.261)">
      <path id="Path_911" data-name="Path 911" class="cls-14" d="M89.954,31.546c0,2.059-1.165,4.044-3.235,4.044a4.282,4.282,0,0,1-4.044-4.044c0-2.059,1.974-3.235,4.044-3.235A2.937,2.937,0,0,1,89.954,31.546Z" transform="translate(-82.674 -28.306)"/>
      <path id="Path_912" data-name="Path 912" class="cls-15" d="M90.131,31.534a3.235,3.235,0,1,1-6.471,0A3.063,3.063,0,0,1,86.9,28.3,3.018,3.018,0,0,1,90.131,31.534Z" transform="translate(-82.852 -28.294)"/>
      <path id="Path_3266" data-name="Path 3266" class="cls-16" d="M87.813,30.373A2.076,2.076,0,1,1,85.737,28.3,1.937,1.937,0,0,1,87.813,30.373Z" transform="translate(-81.693 -27.134)"/>
    </g>
    <g id="Group_2910" data-name="Group 2910" transform="translate(93.015 25.818)">
      <path id="Union_87" data-name="Union 87" class="cls-17" d="M-11261.854-455.583h-31.541a1.972,1.972,0,0,1-1.619-1.616,1.8,1.8,0,0,1,1.616-1.619h31.555a1.728,1.728,0,0,1,1.608,1.618.876.876,0,0,1-.017.165.876.876,0,0,0,.017-.165,1.725,1.725,0,0,1-1.608,1.616h-.008Zm-33.108-1.917a2.039,2.039,0,0,1,1.567-1.317h0A2.039,2.039,0,0,0-11294.963-457.5Zm-.052.3a1.972,1.972,0,0,0,1.616,1.616A1.726,1.726,0,0,1-11295.015-457.2Z" transform="translate(11295.015 458.882)"/>
    </g>
    <g id="Group_2911" data-name="Group 2911" transform="translate(217.574 93.824)">
      <path id="Path_1411" data-name="Path 1411" class="cls-18" d="M253.993,109.371h-1.618v33.162h1.618c.6,0,.809-.208.809-.809V110.18C254.716,109.58,254.6,109.371,253.993,109.371Z" transform="translate(-252.376 -109.371)"/>
      <path id="Path_1412" data-name="Path 1412" class="cls-19" d="M253.993,109.371h-1.618v33.162h1.618c.6,0,.809-.208.809-.809V110.18C254.716,109.58,254.6,109.371,253.993,109.371Z" transform="translate(-252.376 -109.371)"/>
      <path id="Path_1413" data-name="Path 1413" class="cls-20" d="M252.383,109.371v33.162c.431-.172.809-.294.809-.809V110.18C253.191,109.751,252.9,109.543,252.383,109.371Z" transform="translate(-252.383 -109.371)"/>
    </g>
    <g id="Group_2912" data-name="Group 2912" transform="translate(0 94.632)">
      <path id="Path_1414" data-name="Path 1414" class="cls-21" d="M1.006,110.347c-.6,0-.809.208-.809.809v30.735c0,.6.2.809.809.809H2.623V110.347Z" transform="translate(-0.197 -110.347)"/>
      <path id="Path_1415" data-name="Path 1415" class="cls-20" d="M2.886,110.347c-.431.172-.809.294-.809.809v30.735c0,.515.378.723.809.809Z" transform="translate(-0.459 -110.347)"/>
    </g>
    <g id="Group_2913" data-name="Group 2913" transform="translate(0 55.809)">
      <path id="Path_1416" data-name="Path 1416" class="cls-22" d="M1.006,65.047C.4,65.047.2,66.064.2,66.665V82.032c0,.6.2,1.618.809,1.618H2.623v-18.6Z" transform="translate(-0.197 -65.047)"/>
      <path id="Path_1417" data-name="Path 1417" class="cls-20" d="M2.886,65.041c-.431.086-.809,1.1-.809,1.618V82.026c0,.515.378.723.809.809Z" transform="translate(-0.459 -65.041)"/>
    </g>
    <g id="Group_2914" data-name="Group 2914" transform="translate(0 135.074)">
      <path id="Path_1418" data-name="Path 1418" class="cls-23" d="M1.006,157.478c-.6,0-.809.208-.809.809v30.735c0,.6.2,1.618.809,1.618H2.623V157.478Z" transform="translate(-0.197 -157.478)"/>
      <path id="Path_1419" data-name="Path 1419" class="cls-20" d="M2.886,157.472c-.431.172-.809.294-.809.809v30.735c0,.515.378.723.809.809Z" transform="translate(-0.459 -157.472)"/>
    </g>
    <g id="Group_2916" data-name="Group 2916" transform="translate(12.941 51.765)">
      <g id="Group_2915" data-name="Group 2915" transform="translate(0 0)">
        <path id="Path_1420" data-name="Path 1420" class="cls-24" d="M16.81,401.655a1.662,1.662,0,0,1-1.618-1.618V61.949a1.662,1.662,0,0,1,1.618-1.618H207.692a1.662,1.662,0,0,1,1.618,1.618V400.037a1.662,1.662,0,0,1-1.618,1.618Z" transform="translate(-15.192 -60.332)"/>
      </g>
    </g>
  </g>
</svg>
