<svg xmlns="http://www.w3.org/2000/svg" xmlns:xlink="http://www.w3.org/1999/xlink" viewBox="10718.781 4595.984 169.688 117.578">
  <defs>
    <style>
      .cls-1 {
        fill: url(#linear-gradient);
      }
    </style>
    <linearGradient id="linear-gradient" x1="0.047" y1="0.977" x2="1.042" gradientUnits="objectBoundingBox">
      <stop offset="0" stop-color="#34fff8" stop-opacity="0.431"/>
      <stop offset="0.485" stop-color="#17bf60" stop-opacity="0.388"/>
      <stop offset="1" stop-color="#53ff8c" stop-opacity="0.341"/>
    </linearGradient>
  </defs>
  <path id="Path_3274" data-name="Path 3274" class="cls-1" d="M85.625-57.109q0,29.922-9.8,44.3T45.625,1.563q-19.766,0-29.8-14.844T5.781-57.109q0-30.234,9.766-44.57t30.078-14.336q19.766,0,29.883,15T85.625-57.109Zm-55.859,0q0,21.016,3.633,30.117t12.227,9.1q8.438,0,12.188-9.219t3.75-30q0-21.016-3.789-30.2t-12.148-9.18q-8.516,0-12.187,9.18T29.766-57.109ZM139.3-72.969q16.563,0,26.367,9.3t9.8,25.469q0,19.141-11.8,29.453T129.922,1.563q-19.063,0-30.781-6.172V-25.469a63.9,63.9,0,0,0,14.375,5.352,63.6,63.6,0,0,0,15.547,2.07q22.109,0,22.109-18.125,0-17.266-22.891-17.266a56.839,56.839,0,0,0-9.141.82,66.882,66.882,0,0,0-8.125,1.758l-9.609-5.156,4.3-58.2h61.953V-93.75H126.875l-2.109,22.422,2.734-.547A53.777,53.777,0,0,1,139.3-72.969Z" transform="translate(10713 4712)"/>
</svg>
