<svg xmlns="http://www.w3.org/2000/svg" xmlns:xlink="http://www.w3.org/1999/xlink" viewBox="10716.781 1671.984 171.797 117.578">
  <defs>
    <style>
      .cls-1 {
        fill: url(#linear-gradient);
      }
    </style>
    <linearGradient id="linear-gradient" x1="0.047" y1="0.977" x2="1.042" gradientUnits="objectBoundingBox">
      <stop offset="0" stop-color="#34fff8" stop-opacity="0.431"/>
      <stop offset="0.485" stop-color="#17bf60" stop-opacity="0.388"/>
      <stop offset="1" stop-color="#53ff8c" stop-opacity="0.341"/>
    </linearGradient>
  </defs>
  <path id="Path_3271" data-name="Path 3271" class="cls-1" d="M85.625-57.109q0,29.922-9.8,44.3T45.625,1.563q-19.766,0-29.8-14.844T5.781-57.109q0-30.234,9.766-44.57t30.078-14.336q19.766,0,29.883,15T85.625-57.109Zm-55.859,0q0,21.016,3.633,30.117t12.227,9.1q8.438,0,12.188-9.219t3.75-30q0-21.016-3.789-30.2t-12.148-9.18q-8.516,0-12.187,9.18T29.766-57.109ZM177.578,0H97.734V-16.8l28.672-28.984q12.734-13.047,16.641-18.086a39.775,39.775,0,0,0,5.625-9.336,23.768,23.768,0,0,0,1.719-8.906q0-6.875-3.789-10.234T136.484-95.7a29.093,29.093,0,0,0-12.891,3.047,66.524,66.524,0,0,0-13.047,8.672L97.422-99.531a85.626,85.626,0,0,1,13.984-10.156,51.333,51.333,0,0,1,12.109-4.57,62.047,62.047,0,0,1,14.688-1.6,43.489,43.489,0,0,1,18.906,3.906,30.162,30.162,0,0,1,12.734,10.938,29.055,29.055,0,0,1,4.531,16.094,39.392,39.392,0,0,1-2.773,14.8,56.842,56.842,0,0,1-8.594,14.18q-5.82,7.266-20.508,20.7L127.813-21.406v1.094h49.766Z" transform="translate(10711 1788)"/>
</svg>
