<svg xmlns="http://www.w3.org/2000/svg" xmlns:xlink="http://www.w3.org/1999/xlink" viewBox="10711.781 2552.984 170.703 117.578">
  <defs>
    <style>
      .cls-1 {
        fill: url(#linear-gradient);
      }
    </style>
    <linearGradient id="linear-gradient" x1="0.047" y1="0.977" x2="1.042" gradientUnits="objectBoundingBox">
      <stop offset="0" stop-color="#34fff8" stop-opacity="0.431"/>
      <stop offset="0.485" stop-color="#17bf60" stop-opacity="0.388"/>
      <stop offset="1" stop-color="#53ff8c" stop-opacity="0.341"/>
    </linearGradient>
  </defs>
  <path id="Path_3272" data-name="Path 3272" class="cls-1" d="M85.625-57.109q0,29.922-9.8,44.3T45.625,1.563q-19.766,0-29.8-14.844T5.781-57.109q0-30.234,9.766-44.57t30.078-14.336q19.766,0,29.883,15T85.625-57.109Zm-55.859,0q0,21.016,3.633,30.117t12.227,9.1q8.438,0,12.188-9.219t3.75-30q0-21.016-3.789-30.2t-12.148-9.18q-8.516,0-12.187,9.18T29.766-57.109ZM173.125-88.672a26.877,26.877,0,0,1-6.484,18.2q-6.484,7.5-18.2,10.313v.469q13.828,1.719,20.938,8.4t7.109,18.008q0,16.484-11.953,25.664t-34.141,9.18q-18.594,0-32.969-6.172V-25.156a74.513,74.513,0,0,0,14.609,5.469,61.476,61.476,0,0,0,15.781,2.109q11.953,0,17.656-4.062t5.7-13.047q0-8.047-6.562-11.406t-20.937-3.359H115V-67.969h8.828q13.281,0,19.414-3.477t6.133-11.914q0-12.969-16.25-12.969a37.189,37.189,0,0,0-11.445,1.875,55.91,55.91,0,0,0-12.93,6.484L97.578-104.609q15.625-11.25,37.266-11.25,17.734,0,28.008,7.188T173.125-88.672Z" transform="translate(10706 2669)"/>
</svg>
