<svg xmlns="http://www.w3.org/2000/svg" xmlns:xlink="http://www.w3.org/1999/xlink" viewBox="435.012 5990 169.891 116.273">
  <defs>
    <style>
      .cls-1 {
        fill: url(#linear-gradient);
      }
    </style>
    <linearGradient id="linear-gradient" x1="0.047" y1="0.977" x2="1.042" gradientUnits="objectBoundingBox">
      <stop offset="0" stop-color="#34fff8" stop-opacity="0.431"/>
      <stop offset="0.485" stop-color="#17bf60" stop-opacity="0.388"/>
      <stop offset="1" stop-color="#53ff8c" stop-opacity="0.341"/>
    </linearGradient>
  </defs>
  <path id="Path_3747" data-name="Path 3747" class="cls-1" d="M79.969,37.95q0,29.59-9.7,43.805T40.413,95.971q-19.546,0-29.474-14.679T1.012,37.95q0-29.9,9.657-44.076T40.413-20.3q19.546,0,29.551,14.834T79.969,37.95Zm-55.24,0q0,20.782,3.593,29.783t12.091,9q8.344,0,12.052-9.116T56.174,37.95q0-20.782-3.747-29.86T40.413-.988q-8.421,0-12.052,9.078T24.73,37.95Zm66.442,8.5q0-33.53,14.177-49.909T147.8-19.839a77.03,77.03,0,0,1,15.143,1.159V.4a61.874,61.874,0,0,0-13.6-1.545q-12.284,0-20.048,3.708a24.935,24.935,0,0,0-11.627,10.971q-3.863,7.262-4.558,20.628h1q7.649-13.134,24.491-13.134,15.143,0,23.718,9.5T170.9,56.8q0,18.078-10.2,28.624T132.428,95.971q-12.516,0-21.825-5.794a37.636,37.636,0,0,1-14.37-16.92Q91.172,62.132,91.172,46.448Zm40.792,30.44q7.649,0,11.743-5.138T147.8,57.11q0-8.267-3.824-13.018t-11.55-4.751a17.694,17.694,0,0,0-12.4,4.713,14.474,14.474,0,0,0-5.138,10.971,24.866,24.866,0,0,0,4.829,15.529Q124.547,76.888,131.964,76.888Z" transform="translate(434 6010.303)"/>
</svg>
