<svg xmlns="http://www.w3.org/2000/svg" viewBox="11662.068 5291.145 33.095 18.728">
  <defs>
    <style>
      .cls-1 {
        fill: #fff;
      }
    </style>
  </defs>
  <path id="_001-vk" data-name="001-vk" class="cls-1" d="M28.482,123.035a45.049,45.049,0,0,1,3.241,3.26,9.474,9.474,0,0,1,1.162,1.674c.446.865.042,1.817-.733,1.868l-4.821,0a3.722,3.722,0,0,1-3.07-1.248c-.668-.68-1.286-1.4-1.928-2.106a4.568,4.568,0,0,0-.868-.771,1.008,1.008,0,0,0-1.606.39,5.066,5.066,0,0,0-.508,2.249c-.052,1.135-.395,1.434-1.535,1.486a12.329,12.329,0,0,1-6.9-1.483,15.243,15.243,0,0,1-4.642-4.346,58.513,58.513,0,0,1-6.109-10.89c-.386-.858-.1-1.319.844-1.336,1.573-.031,3.145-.028,4.72,0a1.387,1.387,0,0,1,1.309.98,29.259,29.259,0,0,0,3.2,5.928,5.057,5.057,0,0,0,1.208,1.328.734.734,0,0,0,1.248-.367,4.114,4.114,0,0,0,.278-1.243,18.516,18.516,0,0,0-.077-4.358,1.816,1.816,0,0,0-1.547-1.662c-.461-.087-.392-.259-.169-.522a1.733,1.733,0,0,1,1.479-.736h5.449c.858.169,1.048.555,1.166,1.418l0,6.052c-.009.334.167,1.326.769,1.547.482.157.8-.228,1.088-.533A18.768,18.768,0,0,0,24.2,114.9c.369-.745.687-1.519.994-2.292a1.167,1.167,0,0,1,1.232-.843l5.244,0a2.765,2.765,0,0,1,.463.028c.884.151,1.126.531.853,1.394A13.093,13.093,0,0,1,30.9,116.8c-.875,1.21-1.81,2.379-2.677,3.6-.8,1.112-.734,1.672.256,2.638Z" transform="translate(11662.068 5180.018)"/>
</svg>
