<svg xmlns="http://www.w3.org/2000/svg" viewBox="11649 70 55 31.125">
  <defs>
    <style>
      .cls-1 {
        fill: #436eab;
      }
    </style>
  </defs>
  <path id="_001-vk" data-name="001-vk" class="cls-1" d="M47.335,130.918a74.87,74.87,0,0,1,5.386,5.418,15.745,15.745,0,0,1,1.931,2.782c.742,1.438.07,3.019-1.219,3.105l-8.013,0a6.186,6.186,0,0,1-5.1-2.073c-1.109-1.13-2.137-2.333-3.2-3.5a7.591,7.591,0,0,0-1.442-1.282,1.674,1.674,0,0,0-2.668.648,8.419,8.419,0,0,0-.844,3.738c-.086,1.887-.656,2.383-2.551,2.469a20.49,20.49,0,0,1-11.465-2.465,25.332,25.332,0,0,1-7.715-7.223,97.244,97.244,0,0,1-10.153-18.1c-.641-1.427-.172-2.192,1.4-2.22,2.614-.051,5.227-.047,7.844,0a2.3,2.3,0,0,1,2.176,1.629,48.627,48.627,0,0,0,5.317,9.852,8.4,8.4,0,0,0,2.008,2.208,1.221,1.221,0,0,0,2.074-.61,6.838,6.838,0,0,0,.461-2.066,30.773,30.773,0,0,0-.129-7.243,3.019,3.019,0,0,0-2.571-2.762c-.766-.145-.652-.43-.281-.867a2.881,2.881,0,0,1,2.457-1.223h9.055c1.426.281,1.742.922,1.937,2.356l.008,10.059c-.016.555.277,2.2,1.278,2.571.8.262,1.328-.379,1.809-.886a31.19,31.19,0,0,0,5.1-7.837c.613-1.238,1.141-2.524,1.652-3.809a1.939,1.939,0,0,1,2.047-1.4l8.715.008a4.594,4.594,0,0,1,.77.047c1.469.25,1.871.882,1.417,2.316a21.76,21.76,0,0,1-3.465,6.009c-1.453,2.011-3.008,3.953-4.449,5.976-1.324,1.848-1.219,2.779.426,4.383Z" transform="translate(11649 -41.127)"/>
</svg>
