<svg xmlns="http://www.w3.org/2000/svg" viewBox="11724 66 55 38.919">
  <defs>
    <style>
      .cls-1 {
        fill: #f61c0d;
      }
    </style>
  </defs>
  <path id="_002-youtube" data-name="002-youtube" class="cls-1" d="M43.577,67.393H11.423A11.423,11.423,0,0,0,0,78.816V94.89a11.423,11.423,0,0,0,11.423,11.423H43.577A11.423,11.423,0,0,0,55,94.89V78.816A11.423,11.423,0,0,0,43.577,67.393ZM35.852,87.635l-15.04,7.173a.6.6,0,0,1-.864-.545V79.468a.6.6,0,0,1,.877-.539l15.04,7.621A.6.6,0,0,1,35.852,87.635Z" transform="translate(11724 -1.393)"/>
</svg>
