<svg xmlns="http://www.w3.org/2000/svg" viewBox="11707.196 5288.738 33.094 23.418">
  <defs>
    <style>
      .cls-1 {
        fill: #fff;
      }
    </style>
  </defs>
  <path id="_002-youtube" data-name="002-youtube" class="cls-1" d="M26.221,67.393H6.873A6.873,6.873,0,0,0,0,74.266v9.672a6.873,6.873,0,0,0,6.873,6.873H26.221a6.873,6.873,0,0,0,6.873-6.873V74.266A6.873,6.873,0,0,0,26.221,67.393Zm-4.648,12.18-9.05,4.316a.363.363,0,0,1-.52-.328v-8.9a.363.363,0,0,1,.527-.324l9.05,4.586A.363.363,0,0,1,21.573,79.573Z" transform="translate(11707.197 5221.345)"/>
</svg>
