<?xml version="1.0" encoding="utf-8"?><svg xmlns="http://www.w3.org/2000/svg" xmlns:xlink="http://www.w3.org/1999/xlink"><symbol viewBox="11609 64 20 42.857" id="fb" xmlns="http://www.w3.org/2000/svg"><defs><style>.acls-1{fill:#485b90}</style></defs><path id="aFacebook" class="acls-1" d="M119.019 8.3v5.9H114.7v7.215h4.323v21.443h8.88V21.417h5.959s.558-3.46.829-7.242h-6.754V9.242a2.1 2.1 0 0 1 1.925-1.729h4.838V0h-6.578c-9.322 0-9.103 7.223-9.103 8.3z" transform="translate(11494.304 63.999)"/></symbol><symbol viewBox="11638 5287.535 12.034 25.787" id="fb-white" xmlns="http://www.w3.org/2000/svg"><defs><style>.bcls-1{fill:#fff}</style></defs><path id="bFacebook" class="bcls-1" d="M117.3 5v3.55h-2.6v4.341h2.6v12.9h5.343v-12.9h3.586s.336-2.082.5-4.358h-4.064V5.561a1.261 1.261 0 0 1 1.158-1.04h2.911V0h-3.958c-5.611 0-5.476 4.346-5.476 5z" transform="translate(11523.304 5287.534)"/></symbol><symbol viewBox="11999 5281 160 38.637" id="gabbler-icon" xmlns="http://www.w3.org/2000/svg"><defs><style>.ccls-1{fill:#fff}.ccls-2{fill:#00d198}</style></defs><g id="cGroup_5297" data-name="Group 5297" transform="translate(11784 5248)"><path id="cUnion_35" data-name="Union 35" class="ccls-1" d="M60.88 18.724v2.035H56.5V0h4.38v7.734a5.6 5.6 0 0 1 4.785-2.442c3.563 0 6.922 2.747 6.922 7.937 0 5.088-3.359 7.937-6.922 7.937a6.644 6.644 0 0 1-4.785-2.442zm0-5.5c0 2.544 1.73 4.172 3.665 4.172a4.023 4.023 0 0 0 3.767-4.274 3.867 3.867 0 0 0-3.767-4.172c-2.036.005-3.665 1.735-3.665 4.279zm-18.325 5.5v2.035h-4.378V0h4.377v7.734a5.6 5.6 0 0 1 4.786-2.442c3.563 0 6.923 2.747 6.923 7.937 0 5.088-3.36 7.937-6.923 7.937a6.271 6.271 0 0 1-4.785-2.442zm-.1-5.5c0 2.544 1.731 4.172 3.665 4.172a4.024 4.024 0 0 0 3.767-4.274A3.867 3.867 0 0 0 46.12 8.95c-2.038.005-3.667 1.735-3.667 4.279zm-21.178 3.058c0-3.358 2.546-4.885 6.109-4.885a13.253 13.253 0 0 1 3.767.611V11.7c0-1.832-1.119-2.748-3.257-2.748a10.887 10.887 0 0 0-4.174.814L22.6 6.513a14.119 14.119 0 0 1 5.9-1.221 7.089 7.089 0 0 1 5.2 1.729 6.759 6.759 0 0 1 1.629 4.885v8.853h-4.176v-1.628a6.011 6.011 0 0 1-4.581 1.934c-2.952 0-5.295-1.628-5.295-4.783zm4.276-.1c0 1.119 1.019 1.831 2.342 1.831 1.934 0 3.359-1.119 3.359-2.645v-.713a7.3 7.3 0 0 0-2.749-.61c-1.832-.002-2.952.71-2.952 2.135zm56.4-3.054a7.611 7.611 0 0 1 7.533-7.937c5.09 0 7.432 3.969 7.432 8.242a4.563 4.563 0 0 1-.1 1.119H86.23A3.559 3.559 0 0 0 90 17.5a4.777 4.777 0 0 0 3.665-1.526l2.444 2.239a8.021 8.021 0 0 1-14.151-5.088zm4.276-1.221h6.515c-.306-1.934-1.425-3.256-3.258-3.256s-2.951 1.321-3.256 3.254zM0 10.786A10.174 10.174 0 0 1 10.486.508a11.1 11.1 0 0 1 7.839 2.747l-2.85 3.257a7.225 7.225 0 0 0-5.192-2.034c-3.156 0-5.7 2.849-5.7 6.309a5.968 5.968 0 0 0 6.005 6.313 6.984 6.984 0 0 0 4.174-1.221v-2.85h-4.377V9.26h8.653v8.65a13.008 13.008 0 0 1-8.552 3.154C4.276 21.064 0 16.79 0 10.786zm75.133 9.973V0h4.377v20.759zm24.23 0V5.494h4.378v3.053c.917-2.137 2.342-3.46 4.887-3.358v4.579h-.2c-2.851 0-4.683 1.729-4.683 5.393v5.6z" transform="translate(266.373 40.683)"/><path id="cUnion_4" class="ccls-2" d="M10.485 36.531a12.674 12.674 0 0 1-8.552 1.832c2.24.2 3.665-2.646 3.665-5.393a19.324 19.324 0 1 1 27.386 0 19.165 19.165 0 0 1-22.499 3.561z" transform="translate(214.963 32.95)"/><path id="cG" class="ccls-1" d="M19.328 26.35a9.071 9.071 0 0 0 5.9-2.239v-6h-6.002v2.646h3.054v1.933a4.676 4.676 0 0 1-2.851.814 4.388 4.388 0 0 1-.2-8.751 5.525 5.525 0 0 1 3.665 1.425l1.934-2.34a7.766 7.766 0 0 0-5.5-1.933 7.019 7.019 0 0 0-7.228 7.017v.2a7.02 7.02 0 0 0 6.719 7.225z" transform="translate(215.18 33.159)"/></g></symbol><symbol viewBox="10909 40 240.001 90.856" id="gabbler-labs-icon" xmlns="http://www.w3.org/2000/svg"><defs><style>.dcls-1{fill:#565656}.dcls-2{fill:url(#dlinear-gradient)}.dcls-3{fill:#c18b59}.dcls-4{fill:#d3a172}.dcls-5{fill:#ae6224}.dcls-6{fill:#ffecde}.dcls-10,.dcls-11,.dcls-12,.dcls-7,.dcls-8,.dcls-9{fill:#a0693d}.dcls-7{opacity:.4}.dcls-8{opacity:.5}.dcls-9{opacity:.2}.dcls-11{opacity:.7}.dcls-12{opacity:.6}.dcls-13{fill:#1db400;opacity:.29}.dcls-14{fill:#3fe8c0;opacity:.24}.dcls-15{fill:#2b8552}.dcls-16{fill:#009365}.dcls-17{fill:#00d198}.dcls-18{fill:none}.dcls-19{fill:#fff}.dcls-20{fill:#32f9bb}.dcls-21,.dcls-22{fill:#06724e}.dcls-22{opacity:.15}.dcls-23{fill:#90e8ad;opacity:.9}.dcls-24{fill:#438a55;opacity:.64}.dcls-25{filter:url(#dPath_3265)}</style><linearGradient id="dlinear-gradient" x1=".234" y1=".336" x2=".72" y2=".812" gradientUnits="objectBoundingBox"><stop offset="0" stop-color="#d3a172"/><stop offset=".483" stop-color="#f2d6bb"/><stop offset="1" stop-color="#c1762f"/></linearGradient><filter id="dPath_3265" x="10922.176" y="64.882" width="53.999" height="56.182" filterUnits="userSpaceOnUse"><feOffset dy="5"/><feGaussianBlur stdDeviation="4.5" result="blur"/><feFlood flood-opacity=".569"/><feComposite operator="in" in2="blur"/><feComposite in="SourceGraphic"/></filter></defs><g id="dGroup_5028" data-name="Group 5028" transform="translate(727 -193)"><path id="dUnion_85" data-name="Union 85" class="dcls-1" d="M50.684 57.959l1.7-2.749a8.591 8.591 0 0 0 5.254 2.1c1.7 0 2.506-.728 2.506-1.617 0-2.506-8.973-.485-8.973-6.386 0-2.506 2.183-4.77 6.225-4.77a9.282 9.282 0 0 1 6.062 2.1l-1.617 2.749a6.411 6.411 0 0 0-4.446-1.779c-1.455 0-2.344.647-2.344 1.537 0 2.263 8.972.4 8.972 6.466 0 2.749-2.344 4.85-6.548 4.85a11.332 11.332 0 0 1-6.791-2.501zm-35-2.668c0-3.557 2.829-4.85 5.254-4.85a6.028 6.028 0 0 1 4.769 1.86V50.28c0-1.536-1.293-2.506-3.314-2.506a6.363 6.363 0 0 0-4.446 1.778l-1.537-2.668a9.94 9.94 0 0 1 6.628-2.344c3.475 0 6.628 1.374 6.628 5.739v9.781h-3.961v-1.7a6.316 6.316 0 0 1-4.769 1.94 5.018 5.018 0 0 1-5.254-5.009zm4.041.081c0 1.374 1.294 2.183 2.829 2.183a3.592 3.592 0 0 0 3.152-1.294V54.4a3.92 3.92 0 0 0-3.152-1.294c-1.537.003-2.83.811-2.83 2.266zm17.865 2.506v1.94h-3.963V39.044h3.961v7.679a5.931 5.931 0 0 1 4.688-2.344c3.88 0 6.709 2.991 6.709 7.922 0 5.012-2.91 7.922-6.709 7.922a5.931 5.931 0 0 1-4.687-2.344zm.081-8.165v5.336a4.366 4.366 0 0 0 3.395 1.7c2.345 0 3.881-1.778 3.881-4.365 0-2.668-1.536-4.446-3.881-4.446a4.208 4.208 0 0 0-3.397 1.776zM.647 59.9V39.044h4.446v16.975H13.9V59.9zm112.441-41.551A10.374 10.374 0 0 1 123.6 7.68c6.062 0 10.185 4.527 10.185 11.236v1.213h-15.119c.324 2.586 2.425 4.688 5.82 4.688A8.487 8.487 0 0 0 129.9 22.8l2.344 3.476a12.731 12.731 0 0 1-8.404 2.824c-6.14-.08-10.752-4.2-10.752-10.751zm5.5-1.859h10.024a4.736 4.736 0 0 0-5.012-4.527 4.907 4.907 0 0 0-5.014 4.528zM0 14.55C0 5.659 6.709 0 14.955 0A13.081 13.081 0 0 1 26.6 6.305l-4.936 2.667a8.023 8.023 0 0 0-6.628-3.638c-5.093 0-8.811 3.881-8.811 9.215s3.718 9.215 8.811 9.215a9.44 9.44 0 0 0 5.982-2.183v-3.4h-7.437v-5.247H27v10.751a15.463 15.463 0 0 1-11.964 5.335h-.173C6.616 29.021 0 23.3 0 14.55zm84.392 11.318v2.586h-5.335V.485h5.335v10.347A7.806 7.806 0 0 1 90.7 7.68c5.173 0 8.972 4.041 8.972 10.67 0 6.791-3.88 10.671-8.972 10.671a8.042 8.042 0 0 1-6.308-3.153zm0-10.994v7.194A5.941 5.941 0 0 0 89 24.331c3.153 0 5.173-2.344 5.173-5.9s-2.1-5.9-5.173-5.9a6.148 6.148 0 0 0-4.608 2.342zM59.737 25.868v2.586H54.4V.485h5.335v10.347a7.806 7.806 0 0 1 6.308-3.152c5.173 0 8.972 4.041 8.972 10.67 0 6.791-3.88 10.671-8.972 10.671a8.042 8.042 0 0 1-6.306-3.153zm0-10.994v7.194a5.941 5.941 0 0 0 4.607 2.263c3.153 0 5.174-2.344 5.174-5.9s-2.1-5.9-5.174-5.9a6.148 6.148 0 0 0-4.607 2.342zm-29.5 7.437c0-4.77 3.8-6.548 7.032-6.548a8.456 8.456 0 0 1 6.467 2.506V15.52c0-2.1-1.778-3.395-4.446-3.395a8.389 8.389 0 0 0-5.9 2.425l-2.021-3.557a13.407 13.407 0 0 1 8.887-3.233c4.608 0 8.892 1.859 8.892 7.679v13.1h-5.416v-2.1a8.5 8.5 0 0 1-6.467 2.587c-3.233-.006-7.032-2.189-7.032-6.715zm5.416.162c0 1.859 1.7 2.991 3.8 2.991a5.535 5.535 0 0 0 4.284-1.778v-2.507a5.274 5.274 0 0 0-4.289-1.779c-2.102 0-3.8 1.132-3.8 3.072zm102.014 6.062V8.245H143v2.749a8.922 8.922 0 0 1 6.466-3.314v5.254a7.252 7.252 0 0 0-1.455-.162A6.872 6.872 0 0 0 143 15.116v13.419zm-33.95 0V.485h5.335v28.05z" transform="translate(10272.536 251.023)"/><g id="dGroup_5025" data-name="Group 5025" transform="translate(10232.867 233)"><g id="dGroup_5015" data-name="Group 5015"><g id="dGroup_5012" data-name="Group 5012"><path id="dPath_3255" data-name="Path 3255" class="dcls-2" d="M79.142 36.229L65.4 22.487 83.184.5l18.026 18.026z" transform="translate(-63.401 2.165)"/><ellipse id="dEllipse_181" data-name="Ellipse 181" class="dcls-3" cx="3.718" cy="12.772" rx="3.718" ry="12.772" transform="rotate(-45 14.891 -17.995)"/><ellipse id="dEllipse_182" data-name="Ellipse 182" class="dcls-4" cx="2.829" cy="9.7" rx="2.829" ry="9.7" transform="rotate(-45 32.214 13.344)"/></g><g id="dGroup_5013" data-name="Group 5013" transform="translate(19.27 2.584)"><path id="dPath_3256" data-name="Path 3256" class="dcls-5" d="M105.3 18.507a1.876 1.876 0 0 1-1.7.485 14.079 14.079 0 0 1-1.778-.4 14.5 14.5 0 0 1-3.153-1.617 36.722 36.722 0 0 1-5.5-4.446 36.722 36.722 0 0 1-4.446-5.5 14.5 14.5 0 0 1-1.617-3.153 11.6 11.6 0 0 1-.312-1.776 1.876 1.876 0 0 1 .485-1.7 1.88 1.88 0 0 0-.323 1.617 9.449 9.449 0 0 0 .485 1.617 17.926 17.926 0 0 0 1.7 2.991 39.9 39.9 0 0 0 4.446 5.335 35.387 35.387 0 0 0 5.335 4.446 21.875 21.875 0 0 0 2.991 1.7 6.159 6.159 0 0 0 1.617.485 1.573 1.573 0 0 0 1.77-.084z" transform="translate(-86.766 -.4)"/></g><g id="dGroup_5014" data-name="Group 5014" transform="translate(1.725 24.814)"><path id="dPath_3257" data-name="Path 3257" class="dcls-6" d="M70.993 37.358a31.991 31.991 0 0 1-3.8-4.284 20.125 20.125 0 0 1-1.536-2.425 3.98 3.98 0 0 1-.485-1.374 1.622 1.622 0 0 1 .081-1.374 2.636 2.636 0 0 0 0 1.374 6.257 6.257 0 0 0 .566 1.293 23.413 23.413 0 0 0 1.536 2.344 24.354 24.354 0 0 0 1.778 2.263c.648.725 1.214 1.455 1.86 2.183z" transform="translate(-65.061 -27.9)"/></g><ellipse id="dEllipse_197" data-name="Ellipse 197" class="dcls-7" cx=".404" cy=".728" rx=".404" ry=".728" transform="rotate(-40.823 42.32 -38.918)"/><ellipse id="dEllipse_209" data-name="Ellipse 209" class="dcls-8" cx=".404" cy=".728" rx=".404" ry=".728" transform="rotate(-40.823 30.953 -28.31)"/><ellipse id="dEllipse_210" data-name="Ellipse 210" class="dcls-9" cx=".404" cy=".728" rx=".404" ry=".728" transform="rotate(-40.823 35.676 -37.681)"/></g><circle id="dEllipse_190" data-name="Ellipse 190" class="dcls-10" cx=".808" cy=".808" r=".808" transform="translate(17.519 16.892)"/><circle id="dEllipse_208" data-name="Ellipse 208" class="dcls-8" cx=".808" cy=".808" r=".808" transform="translate(26.411 21.742)"/><circle id="dEllipse_207" data-name="Ellipse 207" class="dcls-9" cx=".808" cy=".808" r=".808" transform="translate(19.136 27.4)"/><circle id="dEllipse_191" data-name="Ellipse 191" class="dcls-7" cx=".808" cy=".808" r=".808" transform="translate(31.585 21.661)"/><circle id="dEllipse_192" data-name="Ellipse 192" class="dcls-11" cx=".808" cy=".808" r=".808" transform="translate(17.358 10.021)"/><ellipse id="dEllipse_193" data-name="Ellipse 193" class="dcls-11" cx=".404" cy=".808" rx=".404" ry=".808" transform="rotate(-38.141 37.654 -36.228)"/><ellipse id="dEllipse_194" data-name="Ellipse 194" class="dcls-12" cx=".566" cy="1.213" rx=".566" ry="1.213" transform="rotate(-38.141 26.28 -30.44)"/><ellipse id="dEllipse_195" data-name="Ellipse 195" class="dcls-7" cx=".566" cy="1.213" rx=".566" ry="1.213" transform="rotate(-51.54 16.294 -20.598)"/><ellipse id="dEllipse_196" data-name="Ellipse 196" class="dcls-7" cx=".485" cy=".889" rx=".485" ry=".889" transform="rotate(-40.823 27.341 -34.471)"/></g><g id="dGroup_5024" data-name="Group 5024" transform="translate(10182 243.021)"><circle id="dEllipse_184" data-name="Ellipse 184" class="dcls-13" cx="40.418" cy="40.418" r="40.418"/><circle id="dEllipse_185" data-name="Ellipse 185" class="dcls-14" cx="37.588" cy="37.588" r="37.588" transform="translate(2.829 2.829)"/><path id="dPath_3262" data-name="Path 3262" class="dcls-15" d="M38.613 11.571c-.889.162-1.859.323-2.748.485s-1.859.323-2.748.485a30.056 30.056 0 0 0-5.254 1.536 40.236 40.236 0 0 0-5.012 2.344c-.808.485-1.617.889-2.425 1.374L18 19.25a51 51 0 0 1 9.539-5.982 29.743 29.743 0 0 1 5.335-1.859 67.007 67.007 0 0 1 5.5-1.213.745.745 0 0 1 .889.566.851.851 0 0 1-.647.808z" transform="translate(-3.45 -9.711)"/><path id="dPath_3263" data-name="Path 3263" class="dcls-16" d="M36.723 46.423c-17.3 7.6-26.665-13.231-30.637-4.446A37.089 37.089 0 0 0 3.5 55.72a37.6 37.6 0 0 0 75.177 1.455c-.23-8.414-28.131-16.814-41.954-10.752z" transform="translate(-.671 -15.383)"/><path id="dPath_3264" data-name="Path 3264" class="dcls-17" d="M45.049 50.764C33.732 33.142 3.655 51.343 6.087 42.6A37.089 37.089 0 0 0 3.5 56.342 37.6 37.6 0 0 0 78.677 57.8c-.523 15.309-28.131 1.533-33.628-7.036z" transform="translate(-.671 -15.924)"/><g id="dGroup_5022" data-name="Group 5022" transform="translate(2.813 38.917)"><g id="dGroup_5021" data-name="Group 5021"><path id="dRectangle_703" data-name="Rectangle 703" class="dcls-18" d="M0 0h69.195v39.124H0z"/></g></g><g class="dcls-25" transform="translate(-10909.004 -50.019)" id="dGroup_5023" data-name="Group 5023"><path id="dPath_3265-2" data-name="Path 3265" class="dcls-19" d="M33 53.05c0-8.892 6.709-14.55 14.955-14.55a13.081 13.081 0 0 1 11.64 6.305l-4.931 2.668a8.021 8.021 0 0 0-6.629-3.638c-5.093 0-8.811 3.88-8.811 9.215s3.718 9.215 8.811 9.215a9.437 9.437 0 0 0 5.982-2.183v-3.4H46.58v-5.248H60v10.912a15.463 15.463 0 0 1-11.964 5.335C39.79 67.6 33 61.861 33 53.05z" transform="translate(10902.68 34.88)"/></g><g id="dGroup_5027" data-name="Group 5027" transform="translate(8.003 30.232)"><circle id="dEllipse_186" data-name="Ellipse 186" class="dcls-20" cx="1.617" cy="1.617" r="1.617" transform="translate(6.628 4.284)"/><circle id="dEllipse_187" data-name="Ellipse 187" class="dcls-20" cx="1.132" cy="1.132" r="1.132" transform="translate(19.401 32.9)"/><circle id="dEllipse_188" data-name="Ellipse 188" class="dcls-20" cx="1.132" cy="1.132" r="1.132" transform="translate(55.049 23.927)"/><circle id="dEllipse_189" data-name="Ellipse 189" class="dcls-21" cx=".808" cy=".808" r=".808" transform="translate(56.181 5.82)"/><circle id="dEllipse_198" data-name="Ellipse 198" class="dcls-21" cx=".808" cy=".808" r=".808" transform="translate(62.486 10.185)"/><circle id="dEllipse_199" data-name="Ellipse 199" class="dcls-21" cx=".808" cy=".808" r=".808" transform="translate(36.78 1.698)"/><circle id="dEllipse_200" data-name="Ellipse 200" class="dcls-21" cx=".485" cy=".485" r=".485" transform="translate(50.441)"/><circle id="dEllipse_201" data-name="Ellipse 201" class="dcls-22" cx=".485" cy=".485" r=".485" transform="translate(40.336 31.607)"/><circle id="dEllipse_202" data-name="Ellipse 202" class="dcls-22" cx="1.293" cy="1.293" r="1.293" transform="translate(25.463 30.313)"/><circle id="dEllipse_203" data-name="Ellipse 203" class="dcls-22" cx="1.293" cy="1.293" r="1.293" transform="translate(0 11.398)"/><circle id="dEllipse_204" data-name="Ellipse 204" class="dcls-20" cx="1.132" cy="1.132" r="1.132" transform="translate(5.981 15.52)"/><circle id="dEllipse_205" data-name="Ellipse 205" class="dcls-20" cx="1.132" cy="1.132" r="1.132" transform="translate(48.744 34.517)"/><circle id="dEllipse_206" data-name="Ellipse 206" class="dcls-20" cx=".808" cy=".808" r=".808" transform="translate(16.49 24.655)"/></g></g><g id="dGroup_5026" data-name="Group 5026" transform="translate(10233.86 240.511)"><path id="dUnion_86" data-name="Union 86" class="dcls-23" d="M8.962 22.552C2.363 15.954-1.425 9.044.5 7.119l.066-.062-.023-.025L7.575 0c-1.938 1.939 1.862 8.891 8.408 15.44 6.629 6.627 13.5 10.427 15.52 8.488l-7.032 7.032-.015-.015-.063.067a1.98 1.98 0 0 1-1.455.5c-2.898.001-8.543-3.526-13.976-8.96z" transform="translate(.059 .409)"/><g id="dGroup_5017" data-name="Group 5017" transform="translate(1.33 6.471)"><path id="dPath_3259" data-name="Path 3259" class="dcls-15" d="M66.447 14.662c.081.162.162.243.162.4s.081.323.081.485a4.557 4.557 0 0 0 .323.97 20.669 20.669 0 0 0 .889 1.94 35.1 35.1 0 0 0 2.263 3.718 56.643 56.643 0 0 0 5.578 6.79 56.8 56.8 0 0 1-5.9-6.548c-.889-1.213-1.7-2.344-2.506-3.638-.4-.647-.728-1.293-1.051-1.94a5.613 5.613 0 0 1-.4-1.051 1.576 1.576 0 0 1-.081-.647.645.645 0 0 1 .323-.647c.081 0 .162 0 .162.081z" transform="translate(-65.8 -14.5)"/></g><g id="dGroup_5018" data-name="Group 5018" transform="translate(0 .631)"><path id="dPath_3260" data-name="Path 3260" class="dcls-15" d="M71.628 7.538c-1.617 1.7-3.314 3.314-5.012 5.012L65.4 13.762c-.162.243-.4.4-.566.647a2.871 2.871 0 0 0-.323.728 6.765 6.765 0 0 0 .647 3.314 30.334 30.334 0 0 0 3.642 5.981 48.34 48.34 0 0 0 4.688 5.254 57.332 57.332 0 0 0 5.254 4.688 28.162 28.162 0 0 0 5.982 3.638 6.71 6.71 0 0 0 1.7.485 3 3 0 0 0 1.7-.081 3.8 3.8 0 0 0 .728-.485l.647-.647 1.213-1.213 5.012-4.931-5.012 5.012-1.213 1.213-.647.647a1.76 1.76 0 0 1-.728.566 3.041 3.041 0 0 1-1.7.081 6.71 6.71 0 0 1-1.7-.485 27.429 27.429 0 0 1-6.063-3.638q-2.789-2.183-5.335-4.608a57.332 57.332 0 0 1-4.688-5.254 28.492 28.492 0 0 1-3.718-5.982 6.31 6.31 0 0 1-.728-3.4 2.421 2.421 0 0 1 .323-.808 4.877 4.877 0 0 1 .647-.647l1.213-1.213 5.012-5.012c.322-.478.565-.398.241-.074z" transform="translate(-64.155 -7.275)"/></g><path id="dPath_3261" data-name="Path 3261" class="dcls-24" d="M96.273 24.776l-2.779 2.248c-1.536.728-5.868-1.933-10.152-6.136-4.2-4.2-6.894-8.4-6.166-10.018l2.311-2.791c-2.829-1.537-5.037-2.065-6.007-1.095-1.94 1.778 1.859 8.811 8.407 15.359s13.5 10.347 15.44 8.488c.973-.971.482-3.226-1.054-6.055z" transform="translate(-65.845 -6.495)"/></g></g></symbol><symbol viewBox="10909 40 240.001 90.856" id="gabbler-labs-logo" xmlns="http://www.w3.org/2000/svg"><defs><style>.ecls-1{fill:#565656}.ecls-2{fill:url(#elinear-gradient)}.ecls-3{fill:#c18b59}.ecls-4{fill:#d3a172}.ecls-5{fill:#ae6224}.ecls-6{fill:#ffecde}.ecls-10,.ecls-11,.ecls-12,.ecls-7,.ecls-8,.ecls-9{fill:#a0693d}.ecls-7{opacity:.4}.ecls-8{opacity:.5}.ecls-9{opacity:.2}.ecls-11{opacity:.7}.ecls-12{opacity:.6}.ecls-13{fill:#1db400;opacity:.29}.ecls-14{fill:#3fe8c0;opacity:.24}.ecls-15{fill:#2b8552}.ecls-16{fill:#009365}.ecls-17{fill:#00d198}.ecls-18{fill:none}.ecls-19{fill:#fff}.ecls-20{fill:#32f9bb}.ecls-21,.ecls-22{fill:#06724e}.ecls-22{opacity:.15}.ecls-23{fill:#90e8ad;opacity:.9}.ecls-24{fill:#438a55;opacity:.64}.ecls-25{filter:url(#ePath_3265)}</style><linearGradient id="elinear-gradient" x1=".234" y1=".336" x2=".72" y2=".812" gradientUnits="objectBoundingBox"><stop offset="0" stop-color="#d3a172"/><stop offset=".483" stop-color="#f2d6bb"/><stop offset="1" stop-color="#c1762f"/></linearGradient><filter id="ePath_3265" x="10922.176" y="64.882" width="53.999" height="56.182" filterUnits="userSpaceOnUse"><feOffset dy="5"/><feGaussianBlur stdDeviation="4.5" result="blur"/><feFlood flood-opacity=".569"/><feComposite operator="in" in2="blur"/><feComposite in="SourceGraphic"/></filter></defs><g id="eGroup_5028" data-name="Group 5028" transform="translate(727 -193)"><path id="eUnion_85" data-name="Union 85" class="ecls-1" d="M50.684 57.959l1.7-2.749a8.591 8.591 0 0 0 5.254 2.1c1.7 0 2.506-.728 2.506-1.617 0-2.506-8.973-.485-8.973-6.386 0-2.506 2.183-4.77 6.225-4.77a9.282 9.282 0 0 1 6.062 2.1l-1.617 2.749a6.411 6.411 0 0 0-4.446-1.779c-1.455 0-2.344.647-2.344 1.537 0 2.263 8.972.4 8.972 6.466 0 2.749-2.344 4.85-6.548 4.85a11.332 11.332 0 0 1-6.791-2.501zm-35-2.668c0-3.557 2.829-4.85 5.254-4.85a6.028 6.028 0 0 1 4.769 1.86V50.28c0-1.536-1.293-2.506-3.314-2.506a6.363 6.363 0 0 0-4.446 1.778l-1.537-2.668a9.94 9.94 0 0 1 6.628-2.344c3.475 0 6.628 1.374 6.628 5.739v9.781h-3.961v-1.7a6.316 6.316 0 0 1-4.769 1.94 5.018 5.018 0 0 1-5.254-5.009zm4.041.081c0 1.374 1.294 2.183 2.829 2.183a3.592 3.592 0 0 0 3.152-1.294V54.4a3.92 3.92 0 0 0-3.152-1.294c-1.537.003-2.83.811-2.83 2.266zm17.865 2.506v1.94h-3.963V39.044h3.961v7.679a5.931 5.931 0 0 1 4.688-2.344c3.88 0 6.709 2.991 6.709 7.922 0 5.012-2.91 7.922-6.709 7.922a5.931 5.931 0 0 1-4.687-2.344zm.081-8.165v5.336a4.366 4.366 0 0 0 3.395 1.7c2.345 0 3.881-1.778 3.881-4.365 0-2.668-1.536-4.446-3.881-4.446a4.208 4.208 0 0 0-3.397 1.776zM.647 59.9V39.044h4.446v16.975H13.9V59.9zm112.441-41.551A10.374 10.374 0 0 1 123.6 7.68c6.062 0 10.185 4.527 10.185 11.236v1.213h-15.119c.324 2.586 2.425 4.688 5.82 4.688A8.487 8.487 0 0 0 129.9 22.8l2.344 3.476a12.731 12.731 0 0 1-8.404 2.824c-6.14-.08-10.752-4.2-10.752-10.751zm5.5-1.859h10.024a4.736 4.736 0 0 0-5.012-4.527 4.907 4.907 0 0 0-5.014 4.528zM0 14.55C0 5.659 6.709 0 14.955 0A13.081 13.081 0 0 1 26.6 6.305l-4.936 2.667a8.023 8.023 0 0 0-6.628-3.638c-5.093 0-8.811 3.881-8.811 9.215s3.718 9.215 8.811 9.215a9.44 9.44 0 0 0 5.982-2.183v-3.4h-7.437v-5.247H27v10.751a15.463 15.463 0 0 1-11.964 5.335h-.173C6.616 29.021 0 23.3 0 14.55zm84.392 11.318v2.586h-5.335V.485h5.335v10.347A7.806 7.806 0 0 1 90.7 7.68c5.173 0 8.972 4.041 8.972 10.67 0 6.791-3.88 10.671-8.972 10.671a8.042 8.042 0 0 1-6.308-3.153zm0-10.994v7.194A5.941 5.941 0 0 0 89 24.331c3.153 0 5.173-2.344 5.173-5.9s-2.1-5.9-5.173-5.9a6.148 6.148 0 0 0-4.608 2.342zM59.737 25.868v2.586H54.4V.485h5.335v10.347a7.806 7.806 0 0 1 6.308-3.152c5.173 0 8.972 4.041 8.972 10.67 0 6.791-3.88 10.671-8.972 10.671a8.042 8.042 0 0 1-6.306-3.153zm0-10.994v7.194a5.941 5.941 0 0 0 4.607 2.263c3.153 0 5.174-2.344 5.174-5.9s-2.1-5.9-5.174-5.9a6.148 6.148 0 0 0-4.607 2.342zm-29.5 7.437c0-4.77 3.8-6.548 7.032-6.548a8.456 8.456 0 0 1 6.467 2.506V15.52c0-2.1-1.778-3.395-4.446-3.395a8.389 8.389 0 0 0-5.9 2.425l-2.021-3.557a13.407 13.407 0 0 1 8.887-3.233c4.608 0 8.892 1.859 8.892 7.679v13.1h-5.416v-2.1a8.5 8.5 0 0 1-6.467 2.587c-3.233-.006-7.032-2.189-7.032-6.715zm5.416.162c0 1.859 1.7 2.991 3.8 2.991a5.535 5.535 0 0 0 4.284-1.778v-2.507a5.274 5.274 0 0 0-4.289-1.779c-2.102 0-3.8 1.132-3.8 3.072zm102.014 6.062V8.245H143v2.749a8.922 8.922 0 0 1 6.466-3.314v5.254a7.252 7.252 0 0 0-1.455-.162A6.872 6.872 0 0 0 143 15.116v13.419zm-33.95 0V.485h5.335v28.05z" transform="translate(10272.536 251.023)"/><g id="eGroup_5025" data-name="Group 5025" transform="translate(10232.867 233)"><g id="eGroup_5015" data-name="Group 5015"><g id="eGroup_5012" data-name="Group 5012"><path id="ePath_3255" data-name="Path 3255" class="ecls-2" d="M79.142 36.229L65.4 22.487 83.184.5l18.026 18.026z" transform="translate(-63.401 2.165)"/><ellipse id="eEllipse_181" data-name="Ellipse 181" class="ecls-3" cx="3.718" cy="12.772" rx="3.718" ry="12.772" transform="rotate(-45 14.891 -17.995)"/><ellipse id="eEllipse_182" data-name="Ellipse 182" class="ecls-4" cx="2.829" cy="9.7" rx="2.829" ry="9.7" transform="rotate(-45 32.214 13.344)"/></g><g id="eGroup_5013" data-name="Group 5013" transform="translate(19.27 2.584)"><path id="ePath_3256" data-name="Path 3256" class="ecls-5" d="M105.3 18.507a1.876 1.876 0 0 1-1.7.485 14.079 14.079 0 0 1-1.778-.4 14.5 14.5 0 0 1-3.153-1.617 36.722 36.722 0 0 1-5.5-4.446 36.722 36.722 0 0 1-4.446-5.5 14.5 14.5 0 0 1-1.617-3.153 11.6 11.6 0 0 1-.312-1.776 1.876 1.876 0 0 1 .485-1.7 1.88 1.88 0 0 0-.323 1.617 9.449 9.449 0 0 0 .485 1.617 17.926 17.926 0 0 0 1.7 2.991 39.9 39.9 0 0 0 4.446 5.335 35.387 35.387 0 0 0 5.335 4.446 21.875 21.875 0 0 0 2.991 1.7 6.159 6.159 0 0 0 1.617.485 1.573 1.573 0 0 0 1.77-.084z" transform="translate(-86.766 -.4)"/></g><g id="eGroup_5014" data-name="Group 5014" transform="translate(1.725 24.814)"><path id="ePath_3257" data-name="Path 3257" class="ecls-6" d="M70.993 37.358a31.991 31.991 0 0 1-3.8-4.284 20.125 20.125 0 0 1-1.536-2.425 3.98 3.98 0 0 1-.485-1.374 1.622 1.622 0 0 1 .081-1.374 2.636 2.636 0 0 0 0 1.374 6.257 6.257 0 0 0 .566 1.293 23.413 23.413 0 0 0 1.536 2.344 24.354 24.354 0 0 0 1.778 2.263c.648.725 1.214 1.455 1.86 2.183z" transform="translate(-65.061 -27.9)"/></g><ellipse id="eEllipse_197" data-name="Ellipse 197" class="ecls-7" cx=".404" cy=".728" rx=".404" ry=".728" transform="rotate(-40.823 42.32 -38.918)"/><ellipse id="eEllipse_209" data-name="Ellipse 209" class="ecls-8" cx=".404" cy=".728" rx=".404" ry=".728" transform="rotate(-40.823 30.953 -28.31)"/><ellipse id="eEllipse_210" data-name="Ellipse 210" class="ecls-9" cx=".404" cy=".728" rx=".404" ry=".728" transform="rotate(-40.823 35.676 -37.681)"/></g><circle id="eEllipse_190" data-name="Ellipse 190" class="ecls-10" cx=".808" cy=".808" r=".808" transform="translate(17.519 16.892)"/><circle id="eEllipse_208" data-name="Ellipse 208" class="ecls-8" cx=".808" cy=".808" r=".808" transform="translate(26.411 21.742)"/><circle id="eEllipse_207" data-name="Ellipse 207" class="ecls-9" cx=".808" cy=".808" r=".808" transform="translate(19.136 27.4)"/><circle id="eEllipse_191" data-name="Ellipse 191" class="ecls-7" cx=".808" cy=".808" r=".808" transform="translate(31.585 21.661)"/><circle id="eEllipse_192" data-name="Ellipse 192" class="ecls-11" cx=".808" cy=".808" r=".808" transform="translate(17.358 10.021)"/><ellipse id="eEllipse_193" data-name="Ellipse 193" class="ecls-11" cx=".404" cy=".808" rx=".404" ry=".808" transform="rotate(-38.141 37.654 -36.228)"/><ellipse id="eEllipse_194" data-name="Ellipse 194" class="ecls-12" cx=".566" cy="1.213" rx=".566" ry="1.213" transform="rotate(-38.141 26.28 -30.44)"/><ellipse id="eEllipse_195" data-name="Ellipse 195" class="ecls-7" cx=".566" cy="1.213" rx=".566" ry="1.213" transform="rotate(-51.54 16.294 -20.598)"/><ellipse id="eEllipse_196" data-name="Ellipse 196" class="ecls-7" cx=".485" cy=".889" rx=".485" ry=".889" transform="rotate(-40.823 27.341 -34.471)"/></g><g id="eGroup_5024" data-name="Group 5024" transform="translate(10182 243.021)"><circle id="eEllipse_184" data-name="Ellipse 184" class="ecls-13" cx="40.418" cy="40.418" r="40.418"/><circle id="eEllipse_185" data-name="Ellipse 185" class="ecls-14" cx="37.588" cy="37.588" r="37.588" transform="translate(2.829 2.829)"/><path id="ePath_3262" data-name="Path 3262" class="ecls-15" d="M38.613 11.571c-.889.162-1.859.323-2.748.485s-1.859.323-2.748.485a30.056 30.056 0 0 0-5.254 1.536 40.236 40.236 0 0 0-5.012 2.344c-.808.485-1.617.889-2.425 1.374L18 19.25a51 51 0 0 1 9.539-5.982 29.743 29.743 0 0 1 5.335-1.859 67.007 67.007 0 0 1 5.5-1.213.745.745 0 0 1 .889.566.851.851 0 0 1-.647.808z" transform="translate(-3.45 -9.711)"/><path id="ePath_3263" data-name="Path 3263" class="ecls-16" d="M36.723 46.423c-17.3 7.6-26.665-13.231-30.637-4.446A37.089 37.089 0 0 0 3.5 55.72a37.6 37.6 0 0 0 75.177 1.455c-.23-8.414-28.131-16.814-41.954-10.752z" transform="translate(-.671 -15.383)"/><path id="ePath_3264" data-name="Path 3264" class="ecls-17" d="M45.049 50.764C33.732 33.142 3.655 51.343 6.087 42.6A37.089 37.089 0 0 0 3.5 56.342 37.6 37.6 0 0 0 78.677 57.8c-.523 15.309-28.131 1.533-33.628-7.036z" transform="translate(-.671 -15.924)"/><g id="eGroup_5022" data-name="Group 5022" transform="translate(2.813 38.917)"><g id="eGroup_5021" data-name="Group 5021"><path id="eRectangle_703" data-name="Rectangle 703" class="ecls-18" d="M0 0h69.195v39.124H0z"/></g></g><g class="ecls-25" transform="translate(-10909.004 -50.019)" id="eGroup_5023" data-name="Group 5023"><path id="ePath_3265-2" data-name="Path 3265" class="ecls-19" d="M33 53.05c0-8.892 6.709-14.55 14.955-14.55a13.081 13.081 0 0 1 11.64 6.305l-4.931 2.668a8.021 8.021 0 0 0-6.629-3.638c-5.093 0-8.811 3.88-8.811 9.215s3.718 9.215 8.811 9.215a9.437 9.437 0 0 0 5.982-2.183v-3.4H46.58v-5.248H60v10.912a15.463 15.463 0 0 1-11.964 5.335C39.79 67.6 33 61.861 33 53.05z" transform="translate(10902.68 34.88)"/></g><g id="eGroup_5027" data-name="Group 5027" transform="translate(8.003 30.232)"><circle id="eEllipse_186" data-name="Ellipse 186" class="ecls-20" cx="1.617" cy="1.617" r="1.617" transform="translate(6.628 4.284)"/><circle id="eEllipse_187" data-name="Ellipse 187" class="ecls-20" cx="1.132" cy="1.132" r="1.132" transform="translate(19.401 32.9)"/><circle id="eEllipse_188" data-name="Ellipse 188" class="ecls-20" cx="1.132" cy="1.132" r="1.132" transform="translate(55.049 23.927)"/><circle id="eEllipse_189" data-name="Ellipse 189" class="ecls-21" cx=".808" cy=".808" r=".808" transform="translate(56.181 5.82)"/><circle id="eEllipse_198" data-name="Ellipse 198" class="ecls-21" cx=".808" cy=".808" r=".808" transform="translate(62.486 10.185)"/><circle id="eEllipse_199" data-name="Ellipse 199" class="ecls-21" cx=".808" cy=".808" r=".808" transform="translate(36.78 1.698)"/><circle id="eEllipse_200" data-name="Ellipse 200" class="ecls-21" cx=".485" cy=".485" r=".485" transform="translate(50.441)"/><circle id="eEllipse_201" data-name="Ellipse 201" class="ecls-22" cx=".485" cy=".485" r=".485" transform="translate(40.336 31.607)"/><circle id="eEllipse_202" data-name="Ellipse 202" class="ecls-22" cx="1.293" cy="1.293" r="1.293" transform="translate(25.463 30.313)"/><circle id="eEllipse_203" data-name="Ellipse 203" class="ecls-22" cx="1.293" cy="1.293" r="1.293" transform="translate(0 11.398)"/><circle id="eEllipse_204" data-name="Ellipse 204" class="ecls-20" cx="1.132" cy="1.132" r="1.132" transform="translate(5.981 15.52)"/><circle id="eEllipse_205" data-name="Ellipse 205" class="ecls-20" cx="1.132" cy="1.132" r="1.132" transform="translate(48.744 34.517)"/><circle id="eEllipse_206" data-name="Ellipse 206" class="ecls-20" cx=".808" cy=".808" r=".808" transform="translate(16.49 24.655)"/></g></g><g id="eGroup_5026" data-name="Group 5026" transform="translate(10233.86 240.511)"><path id="eUnion_86" data-name="Union 86" class="ecls-23" d="M8.962 22.552C2.363 15.954-1.425 9.044.5 7.119l.066-.062-.023-.025L7.575 0c-1.938 1.939 1.862 8.891 8.408 15.44 6.629 6.627 13.5 10.427 15.52 8.488l-7.032 7.032-.015-.015-.063.067a1.98 1.98 0 0 1-1.455.5c-2.898.001-8.543-3.526-13.976-8.96z" transform="translate(.059 .409)"/><g id="eGroup_5017" data-name="Group 5017" transform="translate(1.33 6.471)"><path id="ePath_3259" data-name="Path 3259" class="ecls-15" d="M66.447 14.662c.081.162.162.243.162.4s.081.323.081.485a4.557 4.557 0 0 0 .323.97 20.669 20.669 0 0 0 .889 1.94 35.1 35.1 0 0 0 2.263 3.718 56.643 56.643 0 0 0 5.578 6.79 56.8 56.8 0 0 1-5.9-6.548c-.889-1.213-1.7-2.344-2.506-3.638-.4-.647-.728-1.293-1.051-1.94a5.613 5.613 0 0 1-.4-1.051 1.576 1.576 0 0 1-.081-.647.645.645 0 0 1 .323-.647c.081 0 .162 0 .162.081z" transform="translate(-65.8 -14.5)"/></g><g id="eGroup_5018" data-name="Group 5018" transform="translate(0 .631)"><path id="ePath_3260" data-name="Path 3260" class="ecls-15" d="M71.628 7.538c-1.617 1.7-3.314 3.314-5.012 5.012L65.4 13.762c-.162.243-.4.4-.566.647a2.871 2.871 0 0 0-.323.728 6.765 6.765 0 0 0 .647 3.314 30.334 30.334 0 0 0 3.642 5.981 48.34 48.34 0 0 0 4.688 5.254 57.332 57.332 0 0 0 5.254 4.688 28.162 28.162 0 0 0 5.982 3.638 6.71 6.71 0 0 0 1.7.485 3 3 0 0 0 1.7-.081 3.8 3.8 0 0 0 .728-.485l.647-.647 1.213-1.213 5.012-4.931-5.012 5.012-1.213 1.213-.647.647a1.76 1.76 0 0 1-.728.566 3.041 3.041 0 0 1-1.7.081 6.71 6.71 0 0 1-1.7-.485 27.429 27.429 0 0 1-6.063-3.638q-2.789-2.183-5.335-4.608a57.332 57.332 0 0 1-4.688-5.254 28.492 28.492 0 0 1-3.718-5.982 6.31 6.31 0 0 1-.728-3.4 2.421 2.421 0 0 1 .323-.808 4.877 4.877 0 0 1 .647-.647l1.213-1.213 5.012-5.012c.322-.478.565-.398.241-.074z" transform="translate(-64.155 -7.275)"/></g><path id="ePath_3261" data-name="Path 3261" class="ecls-24" d="M96.273 24.776l-2.779 2.248c-1.536.728-5.868-1.933-10.152-6.136-4.2-4.2-6.894-8.4-6.166-10.018l2.311-2.791c-2.829-1.537-5.037-2.065-6.007-1.095-1.94 1.778 1.859 8.811 8.407 15.359s13.5 10.347 15.44 8.488c.973-.971.482-3.226-1.054-6.055z" transform="translate(-65.845 -6.495)"/></g></g></symbol><symbol viewBox="11569 5066 240.001 90.856" id="gabbler-labs-logo-white" xmlns="http://www.w3.org/2000/svg"><defs><style>.fcls-1{fill:#fff}.fcls-2{fill:url(#flinear-gradient)}.fcls-3{fill:#c18b59}.fcls-4{fill:#d3a172}.fcls-5{fill:#ae6224}.fcls-6{fill:#ffecde}.fcls-10,.fcls-11,.fcls-12,.fcls-7,.fcls-8,.fcls-9{fill:#a0693d}.fcls-7{opacity:.4}.fcls-8{opacity:.5}.fcls-9{opacity:.2}.fcls-11{opacity:.7}.fcls-12{opacity:.6}.fcls-13{fill:#1db400;opacity:.29}.fcls-14{fill:#3fe8c0;opacity:.24}.fcls-15{fill:#2b8552}.fcls-16{fill:#009365}.fcls-17{fill:#00d198}.fcls-18{fill:none}.fcls-19{fill:#32f9bb}.fcls-20,.fcls-21{fill:#06724e}.fcls-21{opacity:.15}.fcls-22{fill:#90e8ad;opacity:.9}.fcls-23{fill:#438a55;opacity:.64}.fcls-24{filter:url(#fPath_3265)}</style><linearGradient id="flinear-gradient" x1=".234" y1=".336" x2=".72" y2=".812" gradientUnits="objectBoundingBox"><stop offset="0" stop-color="#d3a172"/><stop offset=".483" stop-color="#f2d6bb"/><stop offset="1" stop-color="#c1762f"/></linearGradient><filter id="fPath_3265" x="11582.176" y="5090.882" width="53.999" height="56.182" filterUnits="userSpaceOnUse"><feOffset dy="5"/><feGaussianBlur stdDeviation="4.5" result="blur"/><feFlood flood-opacity=".569"/><feComposite operator="in" in2="blur"/><feComposite in="SourceGraphic"/></filter></defs><g id="fGroup_5295" data-name="Group 5295" transform="translate(1387 4833)"><path id="fUnion_85" data-name="Union 85" class="fcls-1" d="M50.684 57.959l1.7-2.749a8.591 8.591 0 0 0 5.254 2.1c1.7 0 2.506-.728 2.506-1.617 0-2.506-8.973-.485-8.973-6.386 0-2.506 2.183-4.77 6.225-4.77a9.282 9.282 0 0 1 6.062 2.1l-1.617 2.749a6.411 6.411 0 0 0-4.446-1.779c-1.455 0-2.344.647-2.344 1.537 0 2.263 8.972.4 8.972 6.466 0 2.749-2.344 4.85-6.548 4.85a11.332 11.332 0 0 1-6.791-2.501zm-35-2.668c0-3.557 2.829-4.85 5.254-4.85a6.028 6.028 0 0 1 4.769 1.86V50.28c0-1.536-1.293-2.506-3.314-2.506a6.363 6.363 0 0 0-4.446 1.778l-1.537-2.668a9.94 9.94 0 0 1 6.628-2.344c3.475 0 6.628 1.374 6.628 5.739v9.781h-3.961v-1.7a6.316 6.316 0 0 1-4.769 1.94 5.018 5.018 0 0 1-5.254-5.009zm4.041.081c0 1.374 1.294 2.183 2.829 2.183a3.592 3.592 0 0 0 3.152-1.294V54.4a3.92 3.92 0 0 0-3.152-1.294c-1.537.003-2.83.811-2.83 2.266zm17.865 2.506v1.94h-3.963V39.044h3.961v7.679a5.931 5.931 0 0 1 4.688-2.344c3.88 0 6.709 2.991 6.709 7.922 0 5.012-2.91 7.922-6.709 7.922a5.931 5.931 0 0 1-4.687-2.344zm.081-8.165v5.336a4.366 4.366 0 0 0 3.395 1.7c2.345 0 3.881-1.778 3.881-4.365 0-2.668-1.536-4.446-3.881-4.446a4.208 4.208 0 0 0-3.397 1.776zM.647 59.9V39.044h4.446v16.975H13.9V59.9zm112.441-41.551A10.374 10.374 0 0 1 123.6 7.68c6.062 0 10.185 4.527 10.185 11.236v1.213h-15.119c.324 2.586 2.425 4.688 5.82 4.688A8.487 8.487 0 0 0 129.9 22.8l2.344 3.476a12.731 12.731 0 0 1-8.404 2.824c-6.14-.08-10.752-4.2-10.752-10.751zm5.5-1.859h10.024a4.736 4.736 0 0 0-5.012-4.527 4.907 4.907 0 0 0-5.014 4.528zM0 14.55C0 5.659 6.709 0 14.955 0A13.081 13.081 0 0 1 26.6 6.305l-4.936 2.667a8.023 8.023 0 0 0-6.628-3.638c-5.093 0-8.811 3.881-8.811 9.215s3.718 9.215 8.811 9.215a9.44 9.44 0 0 0 5.982-2.183v-3.4h-7.437v-5.247H27v10.751a15.463 15.463 0 0 1-11.964 5.335h-.173C6.616 29.021 0 23.3 0 14.55zm84.392 11.318v2.586h-5.335V.485h5.335v10.347A7.806 7.806 0 0 1 90.7 7.68c5.173 0 8.972 4.041 8.972 10.67 0 6.791-3.88 10.671-8.972 10.671a8.042 8.042 0 0 1-6.308-3.153zm0-10.994v7.194A5.941 5.941 0 0 0 89 24.331c3.153 0 5.173-2.344 5.173-5.9s-2.1-5.9-5.173-5.9a6.148 6.148 0 0 0-4.608 2.342zM59.737 25.868v2.586H54.4V.485h5.335v10.347a7.806 7.806 0 0 1 6.308-3.152c5.173 0 8.972 4.041 8.972 10.67 0 6.791-3.88 10.671-8.972 10.671a8.042 8.042 0 0 1-6.306-3.153zm0-10.994v7.194a5.941 5.941 0 0 0 4.607 2.263c3.153 0 5.174-2.344 5.174-5.9s-2.1-5.9-5.174-5.9a6.148 6.148 0 0 0-4.607 2.342zm-29.5 7.437c0-4.77 3.8-6.548 7.032-6.548a8.456 8.456 0 0 1 6.467 2.506V15.52c0-2.1-1.778-3.395-4.446-3.395a8.389 8.389 0 0 0-5.9 2.425l-2.021-3.557a13.407 13.407 0 0 1 8.887-3.233c4.608 0 8.892 1.859 8.892 7.679v13.1h-5.416v-2.1a8.5 8.5 0 0 1-6.467 2.587c-3.233-.006-7.032-2.189-7.032-6.715zm5.416.162c0 1.859 1.7 2.991 3.8 2.991a5.535 5.535 0 0 0 4.284-1.778v-2.507a5.274 5.274 0 0 0-4.289-1.779c-2.102 0-3.8 1.132-3.8 3.072zm102.014 6.062V8.245H143v2.749a8.922 8.922 0 0 1 6.466-3.314v5.254a7.252 7.252 0 0 0-1.455-.162A6.872 6.872 0 0 0 143 15.116v13.419zm-33.95 0V.485h5.335v28.05z" transform="translate(10272.536 251.023)"/><g id="fGroup_5025" data-name="Group 5025" transform="translate(10232.867 233)"><g id="fGroup_5015" data-name="Group 5015"><g id="fGroup_5012" data-name="Group 5012"><path id="fPath_3255" data-name="Path 3255" class="fcls-2" d="M79.142 36.229L65.4 22.487 83.184.5l18.026 18.026z" transform="translate(-63.401 2.165)"/><ellipse id="fEllipse_181" data-name="Ellipse 181" class="fcls-3" cx="3.718" cy="12.772" rx="3.718" ry="12.772" transform="rotate(-45 14.891 -17.995)"/><ellipse id="fEllipse_182" data-name="Ellipse 182" class="fcls-4" cx="2.829" cy="9.7" rx="2.829" ry="9.7" transform="rotate(-45 32.214 13.344)"/></g><g id="fGroup_5013" data-name="Group 5013" transform="translate(19.27 2.584)"><path id="fPath_3256" data-name="Path 3256" class="fcls-5" d="M105.3 18.507a1.876 1.876 0 0 1-1.7.485 14.079 14.079 0 0 1-1.778-.4 14.5 14.5 0 0 1-3.153-1.617 36.722 36.722 0 0 1-5.5-4.446 36.722 36.722 0 0 1-4.446-5.5 14.5 14.5 0 0 1-1.617-3.153 11.6 11.6 0 0 1-.312-1.776 1.876 1.876 0 0 1 .485-1.7 1.88 1.88 0 0 0-.323 1.617 9.449 9.449 0 0 0 .485 1.617 17.926 17.926 0 0 0 1.7 2.991 39.9 39.9 0 0 0 4.446 5.335 35.387 35.387 0 0 0 5.335 4.446 21.875 21.875 0 0 0 2.991 1.7 6.159 6.159 0 0 0 1.617.485 1.573 1.573 0 0 0 1.77-.084z" transform="translate(-86.766 -.4)"/></g><g id="fGroup_5014" data-name="Group 5014" transform="translate(1.725 24.814)"><path id="fPath_3257" data-name="Path 3257" class="fcls-6" d="M70.993 37.358a31.991 31.991 0 0 1-3.8-4.284 20.125 20.125 0 0 1-1.536-2.425 3.98 3.98 0 0 1-.485-1.374 1.622 1.622 0 0 1 .081-1.374 2.636 2.636 0 0 0 0 1.374 6.257 6.257 0 0 0 .566 1.293 23.413 23.413 0 0 0 1.536 2.344 24.354 24.354 0 0 0 1.778 2.263c.648.725 1.214 1.455 1.86 2.183z" transform="translate(-65.061 -27.9)"/></g><ellipse id="fEllipse_197" data-name="Ellipse 197" class="fcls-7" cx=".404" cy=".728" rx=".404" ry=".728" transform="rotate(-40.823 42.32 -38.918)"/><ellipse id="fEllipse_209" data-name="Ellipse 209" class="fcls-8" cx=".404" cy=".728" rx=".404" ry=".728" transform="rotate(-40.823 30.953 -28.31)"/><ellipse id="fEllipse_210" data-name="Ellipse 210" class="fcls-9" cx=".404" cy=".728" rx=".404" ry=".728" transform="rotate(-40.823 35.676 -37.681)"/></g><circle id="fEllipse_190" data-name="Ellipse 190" class="fcls-10" cx=".808" cy=".808" r=".808" transform="translate(17.519 16.892)"/><circle id="fEllipse_208" data-name="Ellipse 208" class="fcls-8" cx=".808" cy=".808" r=".808" transform="translate(26.411 21.742)"/><circle id="fEllipse_207" data-name="Ellipse 207" class="fcls-9" cx=".808" cy=".808" r=".808" transform="translate(19.136 27.4)"/><circle id="fEllipse_191" data-name="Ellipse 191" class="fcls-7" cx=".808" cy=".808" r=".808" transform="translate(31.585 21.661)"/><circle id="fEllipse_192" data-name="Ellipse 192" class="fcls-11" cx=".808" cy=".808" r=".808" transform="translate(17.358 10.021)"/><ellipse id="fEllipse_193" data-name="Ellipse 193" class="fcls-11" cx=".404" cy=".808" rx=".404" ry=".808" transform="rotate(-38.141 37.654 -36.228)"/><ellipse id="fEllipse_194" data-name="Ellipse 194" class="fcls-12" cx=".566" cy="1.213" rx=".566" ry="1.213" transform="rotate(-38.141 26.28 -30.44)"/><ellipse id="fEllipse_195" data-name="Ellipse 195" class="fcls-7" cx=".566" cy="1.213" rx=".566" ry="1.213" transform="rotate(-51.54 16.294 -20.598)"/><ellipse id="fEllipse_196" data-name="Ellipse 196" class="fcls-7" cx=".485" cy=".889" rx=".485" ry=".889" transform="rotate(-40.823 27.341 -34.471)"/></g><g id="fGroup_5024" data-name="Group 5024" transform="translate(10182 243.021)"><circle id="fEllipse_184" data-name="Ellipse 184" class="fcls-13" cx="40.418" cy="40.418" r="40.418"/><circle id="fEllipse_185" data-name="Ellipse 185" class="fcls-14" cx="37.588" cy="37.588" r="37.588" transform="translate(2.829 2.829)"/><path id="fPath_3262" data-name="Path 3262" class="fcls-15" d="M38.613 11.571c-.889.162-1.859.323-2.748.485s-1.859.323-2.748.485a30.056 30.056 0 0 0-5.254 1.536 40.236 40.236 0 0 0-5.012 2.344c-.808.485-1.617.889-2.425 1.374L18 19.25a51 51 0 0 1 9.539-5.982 29.743 29.743 0 0 1 5.335-1.859 67.007 67.007 0 0 1 5.5-1.213.745.745 0 0 1 .889.566.851.851 0 0 1-.647.808z" transform="translate(-3.45 -9.711)"/><path id="fPath_3263" data-name="Path 3263" class="fcls-16" d="M36.723 46.423c-17.3 7.6-26.665-13.231-30.637-4.446A37.089 37.089 0 0 0 3.5 55.72a37.6 37.6 0 0 0 75.177 1.455c-.23-8.414-28.131-16.814-41.954-10.752z" transform="translate(-.671 -15.383)"/><path id="fPath_3264" data-name="Path 3264" class="fcls-17" d="M45.049 50.764C33.732 33.142 3.655 51.343 6.087 42.6A37.089 37.089 0 0 0 3.5 56.342 37.6 37.6 0 0 0 78.677 57.8c-.523 15.309-28.131 1.533-33.628-7.036z" transform="translate(-.671 -15.924)"/><g id="fGroup_5022" data-name="Group 5022" transform="translate(2.813 38.917)"><g id="fGroup_5021" data-name="Group 5021"><path id="fRectangle_703" data-name="Rectangle 703" class="fcls-18" d="M0 0h69.195v39.124H0z"/></g></g><g class="fcls-24" transform="translate(-11569.004 -5076.019)" id="fGroup_5023" data-name="Group 5023"><path id="fPath_3265-2" data-name="Path 3265" class="fcls-1" d="M33 53.05c0-8.892 6.709-14.55 14.955-14.55a13.081 13.081 0 0 1 11.64 6.305l-4.931 2.668a8.021 8.021 0 0 0-6.629-3.638c-5.093 0-8.811 3.88-8.811 9.215s3.718 9.215 8.811 9.215a9.437 9.437 0 0 0 5.982-2.183v-3.4H46.58v-5.248H60v10.912a15.463 15.463 0 0 1-11.964 5.335C39.79 67.6 33 61.861 33 53.05z" transform="translate(11562.68 5060.88)"/></g><g id="fGroup_5027" data-name="Group 5027" transform="translate(8.003 30.232)"><circle id="fEllipse_186" data-name="Ellipse 186" class="fcls-19" cx="1.617" cy="1.617" r="1.617" transform="translate(6.628 4.284)"/><circle id="fEllipse_187" data-name="Ellipse 187" class="fcls-19" cx="1.132" cy="1.132" r="1.132" transform="translate(19.401 32.9)"/><circle id="fEllipse_188" data-name="Ellipse 188" class="fcls-19" cx="1.132" cy="1.132" r="1.132" transform="translate(55.049 23.927)"/><circle id="fEllipse_189" data-name="Ellipse 189" class="fcls-20" cx=".808" cy=".808" r=".808" transform="translate(56.181 5.82)"/><circle id="fEllipse_198" data-name="Ellipse 198" class="fcls-20" cx=".808" cy=".808" r=".808" transform="translate(62.486 10.185)"/><circle id="fEllipse_199" data-name="Ellipse 199" class="fcls-20" cx=".808" cy=".808" r=".808" transform="translate(36.78 1.698)"/><circle id="fEllipse_200" data-name="Ellipse 200" class="fcls-20" cx=".485" cy=".485" r=".485" transform="translate(50.441)"/><circle id="fEllipse_201" data-name="Ellipse 201" class="fcls-21" cx=".485" cy=".485" r=".485" transform="translate(40.336 31.607)"/><circle id="fEllipse_202" data-name="Ellipse 202" class="fcls-21" cx="1.293" cy="1.293" r="1.293" transform="translate(25.463 30.313)"/><circle id="fEllipse_203" data-name="Ellipse 203" class="fcls-21" cx="1.293" cy="1.293" r="1.293" transform="translate(0 11.398)"/><circle id="fEllipse_204" data-name="Ellipse 204" class="fcls-19" cx="1.132" cy="1.132" r="1.132" transform="translate(5.981 15.52)"/><circle id="fEllipse_205" data-name="Ellipse 205" class="fcls-19" cx="1.132" cy="1.132" r="1.132" transform="translate(48.744 34.517)"/><circle id="fEllipse_206" data-name="Ellipse 206" class="fcls-19" cx=".808" cy=".808" r=".808" transform="translate(16.49 24.655)"/></g></g><g id="fGroup_5026" data-name="Group 5026" transform="translate(10233.86 240.511)"><path id="fUnion_86" data-name="Union 86" class="fcls-22" d="M8.962 22.552C2.363 15.954-1.425 9.044.5 7.119l.066-.062-.023-.025L7.575 0c-1.938 1.939 1.862 8.891 8.408 15.44 6.629 6.627 13.5 10.427 15.52 8.488l-7.032 7.032-.015-.015-.063.067a1.98 1.98 0 0 1-1.455.5c-2.898.001-8.543-3.526-13.976-8.96z" transform="translate(.059 .409)"/><g id="fGroup_5017" data-name="Group 5017" transform="translate(1.33 6.471)"><path id="fPath_3259" data-name="Path 3259" class="fcls-15" d="M66.447 14.662c.081.162.162.243.162.4s.081.323.081.485a4.557 4.557 0 0 0 .323.97 20.669 20.669 0 0 0 .889 1.94 35.1 35.1 0 0 0 2.263 3.718 56.643 56.643 0 0 0 5.578 6.79 56.8 56.8 0 0 1-5.9-6.548c-.889-1.213-1.7-2.344-2.506-3.638-.4-.647-.728-1.293-1.051-1.94a5.613 5.613 0 0 1-.4-1.051 1.576 1.576 0 0 1-.081-.647.645.645 0 0 1 .323-.647c.081 0 .162 0 .162.081z" transform="translate(-65.8 -14.5)"/></g><g id="fGroup_5018" data-name="Group 5018" transform="translate(0 .631)"><path id="fPath_3260" data-name="Path 3260" class="fcls-15" d="M71.628 7.538c-1.617 1.7-3.314 3.314-5.012 5.012L65.4 13.762c-.162.243-.4.4-.566.647a2.871 2.871 0 0 0-.323.728 6.765 6.765 0 0 0 .647 3.314 30.334 30.334 0 0 0 3.642 5.981 48.34 48.34 0 0 0 4.688 5.254 57.332 57.332 0 0 0 5.254 4.688 28.162 28.162 0 0 0 5.982 3.638 6.71 6.71 0 0 0 1.7.485 3 3 0 0 0 1.7-.081 3.8 3.8 0 0 0 .728-.485l.647-.647 1.213-1.213 5.012-4.931-5.012 5.012-1.213 1.213-.647.647a1.76 1.76 0 0 1-.728.566 3.041 3.041 0 0 1-1.7.081 6.71 6.71 0 0 1-1.7-.485 27.429 27.429 0 0 1-6.063-3.638q-2.789-2.183-5.335-4.608a57.332 57.332 0 0 1-4.688-5.254 28.492 28.492 0 0 1-3.718-5.982 6.31 6.31 0 0 1-.728-3.4 2.421 2.421 0 0 1 .323-.808 4.877 4.877 0 0 1 .647-.647l1.213-1.213 5.012-5.012c.322-.478.565-.398.241-.074z" transform="translate(-64.155 -7.275)"/></g><path id="fPath_3261" data-name="Path 3261" class="fcls-23" d="M96.273 24.776l-2.779 2.248c-1.536.728-5.868-1.933-10.152-6.136-4.2-4.2-6.894-8.4-6.166-10.018l2.311-2.791c-2.829-1.537-5.037-2.065-6.007-1.095-1.94 1.778 1.859 8.811 8.407 15.359s13.5 10.347 15.44 8.488c.973-.971.482-3.226-1.054-6.055z" transform="translate(-65.845 -6.495)"/></g></g></symbol><symbol viewBox="11279 373 220 444.853" id="iphone" xmlns="http://www.w3.org/2000/svg"><defs><style>.gcls-1{opacity:.26}.gcls-2{fill:#666}.gcls-3{fill:#ecebea}.gcls-4{fill:#f7f7f7}.gcls-5{fill:url(#glinear-gradient)}.gcls-6{fill:none}.gcls-7{fill:#c2b7aa}.gcls-8{fill:#d9c9b9}.gcls-9{fill:#ddcdbb}.gcls-10{fill:#e2d0be}.gcls-11{fill:url(#glinear-gradient-2)}.gcls-12{fill:#f1f1f1}.gcls-13{fill:#2b2726}.gcls-14{fill:#fff}.gcls-15{fill:url(#gradial-gradient)}.gcls-16{fill:url(#gradial-gradient-2)}.gcls-17{fill:url(#glinear-gradient-3)}.gcls-18{fill:url(#glinear-gradient-4)}.gcls-19{fill:url(#glinear-gradient-5)}.gcls-20{fill:#b6a08e}.gcls-21{fill:url(#glinear-gradient-6)}.gcls-22{fill:url(#glinear-gradient-7)}.gcls-23{fill:url(#glinear-gradient-8)}.gcls-24{fill:rgba(39,16,2,.41)}</style><linearGradient id="glinear-gradient" x1=".5" y1=".996" x2=".5" y2=".004" gradientUnits="objectBoundingBox"><stop offset="0" stop-color="#f7f7f7"/><stop offset=".055" stop-color="#fefefe"/><stop offset=".214" stop-color="#fff"/><stop offset=".407" stop-color="#f7f7f7"/><stop offset=".593" stop-color="#f7f7f7"/><stop offset=".841" stop-color="#fff"/><stop offset=".951" stop-color="#fdfdfd"/><stop offset="1" stop-color="#f7f7f7"/></linearGradient><linearGradient id="glinear-gradient-2" x1=".308" y1=".93" x2=".701" y2=".047" gradientUnits="objectBoundingBox"><stop offset="0" stop-color="#fdefdf"/><stop offset=".401" stop-color="#432c17"/><stop offset=".764" stop-color="#775c43"/><stop offset="1" stop-color="#feefdf"/></linearGradient><radialGradient id="gradial-gradient" cx="88.911" cy="35.224" r="6.031" gradientTransform="translate(-.003 -.005)" gradientUnits="userSpaceOnUse"><stop offset="0" stop-color="#696969"/><stop offset="1" stop-color="#232323"/></radialGradient><radialGradient id="gradial-gradient-2" cx=".755" cy=".876" r=".932"><stop offset="0" stop-color="#1c1b1b"/><stop offset="1" stop-color="#232323"/></radialGradient><linearGradient id="glinear-gradient-3" x1=".499" y1=".99" x2=".499" y2="-.014" gradientUnits="objectBoundingBox"><stop offset="0" stop-color="#080808"/><stop offset=".258" stop-color="#3a3a3a"/><stop offset=".758" stop-color="#3a3a3a"/><stop offset="1" stop-color="#080808"/></linearGradient><linearGradient id="glinear-gradient-4" x1=".473" y1="-.001" x2=".473" y2="1.004" gradientUnits="objectBoundingBox"><stop offset="0" stop-color="#64656b"/><stop offset=".066" stop-color="#b2b4b9"/><stop offset=".934" stop-color="#b8babf"/><stop offset="1" stop-color="#67686e"/></linearGradient><linearGradient id="glinear-gradient-5" x1=".473" y1="-.001" x2=".473" y2="1.004" gradientUnits="objectBoundingBox"><stop offset="0" stop-color="#6f5944"/><stop offset=".055" stop-color="#f5e7d8"/><stop offset=".923" stop-color="#f5e7d8"/><stop offset="1" stop-color="#725e4a"/></linearGradient><linearGradient id="glinear-gradient-6" x1=".497" y1="-.001" x2=".497" y2=".997" xlink:href="#glinear-gradient-5"/><linearGradient id="glinear-gradient-7" x1=".497" y1=".003" x2=".497" y2=".988" xlink:href="#glinear-gradient-5"/><linearGradient id="glinear-gradient-8" x1=".497" x2=".497" y2="1.008" xlink:href="#glinear-gradient-5"/></defs><g id="gGroup_2917" data-name="Group 2917" transform="translate(11279 373)"><g id="gGroup_2104" data-name="Group 2104" class="gcls-1" transform="translate(1.617)"><path id="gPath_876" data-name="Path 876" class="gcls-2" d="M218.835 412.5a32.322 32.322 0 0 1-32.353 32.353H34.423A32.322 32.322 0 0 1 2.07 412.5V32.353A32.267 32.267 0 0 1 34.423 0h152.059a32.322 32.322 0 0 1 32.353 32.353z" transform="translate(-2.07)"/></g><g id="gGroup_2106" data-name="Group 2106" transform="translate(4.853 3.235)"><g id="gGroup_2105" data-name="Group 2105"><path id="gPath_877" data-name="Path 877" class="gcls-3" d="M216.112 413.035a29.112 29.112 0 0 1-29.118 29.118H34.935a29.112 29.112 0 0 1-29.117-29.118V32.888A29.112 29.112 0 0 1 34.935 3.77h152.059a29.112 29.112 0 0 1 29.118 29.118z" transform="translate(-5.818 -3.77)"/></g></g><g id="gGroup_2108" data-name="Group 2108" transform="translate(6.471 4.853)"><g id="gGroup_2107" data-name="Group 2107"><path id="gPath_878" data-name="Path 878" class="gcls-4" d="M214.757 412.5a28.5 28.5 0 0 1-28.309 28.309H36.007A28.5 28.5 0 0 1 7.7 412.5V33.97A28.5 28.5 0 0 1 36.007 5.661h150.441a28.5 28.5 0 0 1 28.309 28.309z" transform="translate(-7.698 -5.661)"/></g></g><path id="gPath_879" data-name="Path 879" class="gcls-5" d="M10.9 409.662V35.985c0-13.21 8.866-24.669 21.029-27.5C18.3 10.458 7.664 22 7.664 35.985V411.28c0 14.925 12.49 27.794 27.5 28.309C21.535 437.787 10.9 423.9 10.9 409.662zM190.459 8.485c12.25 2.831 21.029 14.29 21.029 27.5v373.677c0 13.639-9.88 26.458-22.647 29.118 14.234-1.372 25.882-13.089 25.882-27.5V35.985c.087-13.985-10.635-25.527-24.264-27.5z" transform="translate(-1.194 -1.206)"/><g id="gGroup_2121" data-name="Group 2121" transform="translate(1.618)"><g id="gGroup_2109" data-name="Group 2109"><path id="gPath_880" data-name="Path 880" class="gcls-6" d="M186.994 3.77H34.935A29.112 29.112 0 0 0 5.818 32.888v380.147a29.112 29.112 0 0 0 29.118 29.118h152.058a29.112 29.112 0 0 0 29.118-29.118V32.888A29.112 29.112 0 0 0 186.994 3.77z" transform="translate(-2.582 -.535)"/><path id="gPath_881" data-name="Path 881" class="gcls-7" d="M215.606 412.5a29.111 29.111 0 0 1-29.118 29.118H34.43A29.111 29.111 0 0 1 5.312 412.5V32.353A29.112 29.112 0 0 1 34.43 3.235h152.059a29.112 29.112 0 0 1 29.118 29.118zM186.489 0H34.43A32.322 32.322 0 0 0 2.077 32.353V412.5a32.322 32.322 0 0 0 32.353 32.353h152.059a32.322 32.322 0 0 0 32.353-32.353V32.353A32.267 32.267 0 0 0 186.489 0z" transform="translate(-2.077)"/></g><g id="gGroup_2114" data-name="Group 2114" transform="translate(.809 .809)"><path id="gPath_890" data-name="Path 890" class="gcls-6" d="M186.836 2.8H34.777A30.109 30.109 0 0 0 4.851 32.727v380.147c0 16.3 13.45 29.118 29.926 29.118h152.059c16.39 0 29.926-12.734 29.926-29.118V32.727A30.108 30.108 0 0 0 186.836 2.8z" transform="translate(-3.233 -1.183)"/><path id="gPath_891" data-name="Path 891" class="gcls-8" d="M216.553 412.649a30.108 30.108 0 0 1-29.926 29.927H34.568a30.109 30.109 0 0 1-29.927-29.927V32.5A30.108 30.108 0 0 1 34.568 2.575h152.059A30.109 30.109 0 0 1 216.553 32.5zM186.627.958H34.568A31.275 31.275 0 0 0 3.024 32.5v380.149a31.275 31.275 0 0 0 31.544 31.544h152.059a31.275 31.275 0 0 0 31.544-31.544V32.5A31.275 31.275 0 0 0 186.627.958z" transform="translate(-3.024 -.958)"/></g><g id="gGroup_2115" data-name="Group 2115" transform="translate(.809 .809)"><path id="gPath_892" data-name="Path 892" class="gcls-6" d="M186.843 2.806H34.784A30.053 30.053 0 0 0 4.857 32.733V412.88a30.053 30.053 0 0 0 29.926 29.926h152.06a30.053 30.053 0 0 0 29.926-29.926V32.733a30.053 30.053 0 0 0-29.926-29.927z" transform="translate(-3.24 -1.189)"/><path id="gPath_893" data-name="Path 893" class="gcls-9" d="M216.547 412.643a30.053 30.053 0 0 1-29.926 29.927H34.561a30.053 30.053 0 0 1-29.926-29.927V32.5A30.053 30.053 0 0 1 34.561 2.569H186.62A30.053 30.053 0 0 1 216.547 32.5zM186.62.952H34.561A31.383 31.383 0 0 0 3.017 32.5v380.143a31.383 31.383 0 0 0 31.544 31.544H186.62a31.383 31.383 0 0 0 31.544-31.544V32.5A31.383 31.383 0 0 0 186.62.952z" transform="translate(-3.017 -.952)"/></g><g id="gGroup_2116" data-name="Group 2116" transform="translate(.809 .809)"><path id="gPath_894" data-name="Path 894" class="gcls-6" d="M186.849 2.806H34.791A30 30 0 0 0 4.864 32.733V412.88a29.942 29.942 0 0 0 29.926 29.926h152.059a29.942 29.942 0 0 0 29.926-29.926V32.733a30 30 0 0 0-29.926-29.927z" transform="translate(-3.246 -1.189)"/><path id="gPath_895" data-name="Path 895" class="gcls-10" d="M216.54 412.631a29.942 29.942 0 0 1-29.926 29.926H34.555a30.053 30.053 0 0 1-29.927-29.926V32.484A30 30 0 0 1 34.555 2.557h152.058a29.942 29.942 0 0 1 29.927 29.927zM186.613.939H34.555A31.383 31.383 0 0 0 3.01 32.484v380.147a31.383 31.383 0 0 0 31.544 31.544h152.059a31.383 31.383 0 0 0 31.544-31.544V32.484A31.492 31.492 0 0 0 186.613.939z" transform="translate(-3.01 -.939)"/></g><g id="gGroup_2120" data-name="Group 2120" transform="translate(.809 1.618)"><path id="gPath_902" data-name="Path 902" class="gcls-6" d="M186.869 2.831H34.811A29.724 29.724 0 0 0 4.884 32.757V412.1c0 16.641 13.191 30.735 29.926 30.735h152.059c16.735 0 29.926-14.094 29.926-30.735V32.757a29.724 29.724 0 0 0-29.926-29.926z" transform="translate(-3.266 -2.022)"/></g></g><path id="gPath_907" data-name="Path 907" class="gcls-11" d="M141.837 481.866a16.828 16.828 0 0 1-16.985 16.985c-9.575 0-17.794-7.55-17.794-16.985 0-9.521 8.305-16.985 17.794-16.985a16.882 16.882 0 0 1 16.985 16.985z" transform="translate(-14.851 -66.131)"/><path id="gPath_908" data-name="Path 908" class="gcls-12" d="M140.468 482.128A15.331 15.331 0 0 1 125.1 497.5c-8.54 0-16.176-6.876-16.176-15.368s7.636-15.372 16.176-15.372a15.331 15.331 0 0 1 15.368 15.368z" transform="translate(-15.101 -66.392)"/><g id="gGroup_2125" data-name="Group 2125" transform="translate(107.574 9.706)"><path id="gPath_910" data-name="Path 910" class="gcls-13" d="M130.541 14.527a2.2 2.2 0 0 1-2.426 2.426c-1.553 0-3.235-.882-3.235-2.426a3.6 3.6 0 0 1 3.235-3.235c1.553.086 2.426 1.777 2.426 3.235z" transform="translate(-124.879 -11.292)"/></g><g id="gGroup_2128" data-name="Group 2128" transform="translate(71.176 24.261)"><path id="gPath_911" data-name="Path 911" class="gcls-14" d="M89.954 31.546c0 2.059-1.165 4.044-3.235 4.044a4.282 4.282 0 0 1-4.044-4.044c0-2.059 1.974-3.235 4.044-3.235a2.937 2.937 0 0 1 3.235 3.235z" transform="translate(-82.674 -28.306)"/><path id="gPath_912" data-name="Path 912" class="gcls-15" d="M90.131 31.534a3.235 3.235 0 1 1-6.471 0A3.063 3.063 0 0 1 86.9 28.3a3.018 3.018 0 0 1 3.231 3.234z" transform="translate(-82.852 -28.294)"/><path id="gPath_3266" data-name="Path 3266" class="gcls-16" d="M87.813 30.373a2.076 2.076 0 1 1-2.076-2.073 1.937 1.937 0 0 1 2.076 2.073z" transform="translate(-81.693 -27.134)"/></g><g id="gGroup_2910" data-name="Group 2910" transform="translate(93.015 25.818)"><path id="gUnion_87" data-name="Union 87" class="gcls-17" d="M-11261.854-455.583h-31.541a1.972 1.972 0 0 1-1.619-1.616 1.8 1.8 0 0 1 1.616-1.619h31.555a1.728 1.728 0 0 1 1.608 1.618.876.876 0 0 1-.017.165.876.876 0 0 0 .017-.165 1.725 1.725 0 0 1-1.608 1.616h-.008zm-33.108-1.917a2.039 2.039 0 0 1 1.567-1.317 2.039 2.039 0 0 0-1.568 1.317zm-.052.3a1.972 1.972 0 0 0 1.616 1.616 1.726 1.726 0 0 1-1.617-1.616z" transform="translate(11295.015 458.882)"/></g><g id="gGroup_2911" data-name="Group 2911" transform="translate(217.574 93.824)"><path id="gPath_1411" data-name="Path 1411" class="gcls-18" d="M253.993 109.371h-1.618v33.162h1.618c.6 0 .809-.208.809-.809V110.18c-.086-.6-.202-.809-.809-.809z" transform="translate(-252.376 -109.371)"/><path id="gPath_1412" data-name="Path 1412" class="gcls-19" d="M253.993 109.371h-1.618v33.162h1.618c.6 0 .809-.208.809-.809V110.18c-.086-.6-.202-.809-.809-.809z" transform="translate(-252.376 -109.371)"/><path id="gPath_1413" data-name="Path 1413" class="gcls-20" d="M252.383 109.371v33.162c.431-.172.809-.294.809-.809V110.18c-.001-.429-.292-.637-.809-.809z" transform="translate(-252.383 -109.371)"/></g><g id="gGroup_2912" data-name="Group 2912" transform="translate(0 94.632)"><path id="gPath_1414" data-name="Path 1414" class="gcls-21" d="M1.006 110.347c-.6 0-.809.208-.809.809v30.735c0 .6.2.809.809.809h1.617v-32.353z" transform="translate(-.197 -110.347)"/><path id="gPath_1415" data-name="Path 1415" class="gcls-20" d="M2.886 110.347c-.431.172-.809.294-.809.809v30.735c0 .515.378.723.809.809z" transform="translate(-.459 -110.347)"/></g><g id="gGroup_2913" data-name="Group 2913" transform="translate(0 55.809)"><path id="gPath_1416" data-name="Path 1416" class="gcls-22" d="M1.006 65.047C.4 65.047.2 66.064.2 66.665v15.367c0 .6.2 1.618.809 1.618h1.614v-18.6z" transform="translate(-.197 -65.047)"/><path id="gPath_1417" data-name="Path 1417" class="gcls-20" d="M2.886 65.041c-.431.086-.809 1.1-.809 1.618v15.367c0 .515.378.723.809.809z" transform="translate(-.459 -65.041)"/></g><g id="gGroup_2914" data-name="Group 2914" transform="translate(0 135.074)"><path id="gPath_1418" data-name="Path 1418" class="gcls-23" d="M1.006 157.478c-.6 0-.809.208-.809.809v30.735c0 .6.2 1.618.809 1.618h1.617v-33.162z" transform="translate(-.197 -157.478)"/><path id="gPath_1419" data-name="Path 1419" class="gcls-20" d="M2.886 157.472c-.431.172-.809.294-.809.809v30.735c0 .515.378.723.809.809z" transform="translate(-.459 -157.472)"/></g><g id="gGroup_2916" data-name="Group 2916" transform="translate(12.941 51.765)"><g id="gGroup_2915" data-name="Group 2915"><path id="gPath_1420" data-name="Path 1420" class="gcls-24" d="M16.81 401.655a1.662 1.662 0 0 1-1.618-1.618V61.949a1.662 1.662 0 0 1 1.618-1.618h190.882a1.662 1.662 0 0 1 1.618 1.618v338.088a1.662 1.662 0 0 1-1.618 1.618z" transform="translate(-15.192 -60.332)"/></g></g></g></symbol><symbol viewBox="14282.333 16.667 9.333 6.667" id="menu-icon" xmlns="http://www.w3.org/2000/svg"><defs><style>.hcls-1{fill:#fff}</style></defs><g id="hGroup_5525" data-name="Group 5525" transform="translate(14282.333 16.667)"><rect id="hRectangle_846" data-name="Rectangle 846" class="hcls-1" width="9.333" height="1.389" rx=".694"/><rect id="hRectangle_847" data-name="Rectangle 847" class="hcls-1" width="9.333" height="1.389" rx=".694" transform="translate(0 2.639)"/><rect id="hRectangle_848" data-name="Rectangle 848" class="hcls-1" width="9.333" height="1.389" rx=".694" transform="translate(0 5.278)"/></g></symbol><symbol viewBox="10735.757 456 153.011 118.641" id="nav-1" xmlns="http://www.w3.org/2000/svg"><defs><style>.icls-1{fill:url(#ilinear-gradient)}</style><linearGradient id="ilinear-gradient" x1=".047" y1=".977" x2="1.042" gradientUnits="objectBoundingBox"><stop offset="0" stop-color="#34fff8" stop-opacity=".431"/><stop offset=".485" stop-color="#17bf60" stop-opacity=".388"/><stop offset="1" stop-color="#53ff8c" stop-opacity=".341"/></linearGradient></defs><path id="iPath_3270" data-name="Path 3270" class="icls-1" d="M86.094-51.5q0 30.192-9.893 44.7T45.732 7.7q-19.944 0-30.074-14.977T5.528-51.5q0-30.508 9.854-44.973t30.35-14.466q19.944 0 30.153 15.136T86.094-51.5zm-56.364 0q0 21.206 3.666 30.389t12.337 9.184q8.514 0 12.3-9.3T61.814-51.5q0-21.206-3.823-30.468t-12.259-9.264q-8.593 0-12.3 9.263T29.729-51.5zM158.54 6.124h-24.359v-66.691l.237-10.958.394-11.982q-6.07 6.07-8.435 7.962L113.133-64.9l-11.746-14.665 37.129-29.562h20.024z" transform="translate(10730.228 566.94)"/></symbol><symbol viewBox="10716.781 1671.984 171.797 117.578" id="nav-2" xmlns="http://www.w3.org/2000/svg"><defs><style>.jcls-1{fill:url(#jlinear-gradient)}</style><linearGradient id="jlinear-gradient" x1=".047" y1=".977" x2="1.042" gradientUnits="objectBoundingBox"><stop offset="0" stop-color="#34fff8" stop-opacity=".431"/><stop offset=".485" stop-color="#17bf60" stop-opacity=".388"/><stop offset="1" stop-color="#53ff8c" stop-opacity=".341"/></linearGradient></defs><path id="jPath_3271" data-name="Path 3271" class="jcls-1" d="M85.625-57.109q0 29.922-9.8 44.3t-30.2 14.372q-19.766 0-29.8-14.844T5.781-57.109q0-30.234 9.766-44.57t30.078-14.336q19.766 0 29.883 15t10.117 43.906zm-55.859 0q0 21.016 3.633 30.117t12.227 9.1q8.438 0 12.188-9.219t3.75-30q0-21.016-3.789-30.2t-12.148-9.18q-8.516 0-12.187 9.18t-3.674 30.202zM177.578 0H97.734v-16.8l28.672-28.984q12.734-13.047 16.641-18.086a39.775 39.775 0 0 0 5.625-9.336 23.768 23.768 0 0 0 1.719-8.906q0-6.875-3.789-10.234T136.484-95.7a29.093 29.093 0 0 0-12.891 3.047 66.524 66.524 0 0 0-13.047 8.672l-13.124-15.55a85.626 85.626 0 0 1 13.984-10.156 51.333 51.333 0 0 1 12.109-4.57 62.047 62.047 0 0 1 14.688-1.6 43.489 43.489 0 0 1 18.906 3.906 30.162 30.162 0 0 1 12.734 10.938 29.055 29.055 0 0 1 4.531 16.094 39.392 39.392 0 0 1-2.773 14.8 56.842 56.842 0 0 1-8.594 14.18q-5.82 7.266-20.508 20.7l-14.686 13.833v1.094h49.766z" transform="translate(10711 1788)"/></symbol><symbol viewBox="10711.781 2552.984 170.703 117.578" id="nav-3" xmlns="http://www.w3.org/2000/svg"><defs><style>.kcls-1{fill:url(#klinear-gradient)}</style><linearGradient id="klinear-gradient" x1=".047" y1=".977" x2="1.042" gradientUnits="objectBoundingBox"><stop offset="0" stop-color="#34fff8" stop-opacity=".431"/><stop offset=".485" stop-color="#17bf60" stop-opacity=".388"/><stop offset="1" stop-color="#53ff8c" stop-opacity=".341"/></linearGradient></defs><path id="kPath_3272" data-name="Path 3272" class="kcls-1" d="M85.625-57.109q0 29.922-9.8 44.3t-30.2 14.372q-19.766 0-29.8-14.844T5.781-57.109q0-30.234 9.766-44.57t30.078-14.336q19.766 0 29.883 15t10.117 43.906zm-55.859 0q0 21.016 3.633 30.117t12.227 9.1q8.438 0 12.188-9.219t3.75-30q0-21.016-3.789-30.2t-12.148-9.18q-8.516 0-12.187 9.18t-3.674 30.202zm143.359-31.563a26.877 26.877 0 0 1-6.484 18.2q-6.484 7.5-18.2 10.313v.469q13.828 1.719 20.938 8.4t7.109 18.008q0 16.484-11.953 25.664t-34.141 9.18q-18.594 0-32.969-6.172v-20.546a74.513 74.513 0 0 0 14.609 5.469 61.476 61.476 0 0 0 15.781 2.109q11.953 0 17.656-4.062t5.7-13.047q0-8.047-6.562-11.406t-20.937-3.359H115v-18.517h8.828q13.281 0 19.414-3.477t6.133-11.914q0-12.969-16.25-12.969a37.189 37.189 0 0 0-11.445 1.875 55.91 55.91 0 0 0-12.93 6.484l-11.172-16.639q15.625-11.25 37.266-11.25 17.734 0 28.008 7.188t10.273 19.999z" transform="translate(10706 2669)"/></symbol><symbol viewBox="10712.125 3628.984 174.375 117.578" id="nav-4" xmlns="http://www.w3.org/2000/svg"><defs><style>.lcls-1{fill:url(#llinear-gradient)}</style><linearGradient id="llinear-gradient" x1=".047" y1=".977" x2="1.042" gradientUnits="objectBoundingBox"><stop offset="0" stop-color="#34fff8" stop-opacity=".431"/><stop offset=".485" stop-color="#17bf60" stop-opacity=".388"/><stop offset="1" stop-color="#53ff8c" stop-opacity=".341"/></linearGradient></defs><path id="lPath_3273" data-name="Path 3273" class="lcls-1" d="M-97.031-57.109q0 29.922-9.8 44.3t-30.2 14.375q-19.766 0-29.8-14.844t-10.039-43.828q0-30.234 9.766-44.57t30.078-14.336q19.766 0 29.883 15t10.112 43.903zm-55.859 0q0 21.016 3.633 30.117t12.227 9.1q8.438 0 12.188-9.219t3.75-30q0-21.016-3.789-30.2t-12.148-9.18q-8.516 0-12.187 9.18t-3.675 30.202zM-2.5-23.672h-13.75V0h-23.594v-23.672h-48.75v-16.8l50.078-73.75h22.266v71.8H-2.5zm-37.344-18.75V-61.8q0-4.844.391-14.062t.625-10.7h-.625a87.125 87.125 0 0 1-6.953 12.5l-20.938 31.64z" transform="translate(10889 3745)"/></symbol><symbol viewBox="10718.781 4595.984 169.688 117.578" id="nav-5" xmlns="http://www.w3.org/2000/svg"><defs><style>.mcls-1{fill:url(#mlinear-gradient)}</style><linearGradient id="mlinear-gradient" x1=".047" y1=".977" x2="1.042" gradientUnits="objectBoundingBox"><stop offset="0" stop-color="#34fff8" stop-opacity=".431"/><stop offset=".485" stop-color="#17bf60" stop-opacity=".388"/><stop offset="1" stop-color="#53ff8c" stop-opacity=".341"/></linearGradient></defs><path id="mPath_3274" data-name="Path 3274" class="mcls-1" d="M85.625-57.109q0 29.922-9.8 44.3t-30.2 14.372q-19.766 0-29.8-14.844T5.781-57.109q0-30.234 9.766-44.57t30.078-14.336q19.766 0 29.883 15t10.117 43.906zm-55.859 0q0 21.016 3.633 30.117t12.227 9.1q8.438 0 12.188-9.219t3.75-30q0-21.016-3.789-30.2t-12.148-9.18q-8.516 0-12.187 9.18t-3.674 30.202zM139.3-72.969q16.563 0 26.367 9.3t9.8 25.469q0 19.141-11.8 29.453t-33.745 10.31q-19.063 0-30.781-6.172v-20.86a63.9 63.9 0 0 0 14.375 5.352 63.6 63.6 0 0 0 15.547 2.07q22.109 0 22.109-18.125 0-17.266-22.891-17.266a56.839 56.839 0 0 0-9.141.82 66.882 66.882 0 0 0-8.125 1.758l-9.609-5.156 4.3-58.2h61.953v20.466h-40.784l-2.109 22.422 2.734-.547a53.777 53.777 0 0 1 11.8-1.094z" transform="translate(10713 4712)"/></symbol><symbol viewBox="11649 70 55 31.125" id="vk" xmlns="http://www.w3.org/2000/svg"><defs><style>.ncls-1{fill:#436eab}</style></defs><path id="n_001-vk" data-name="001-vk" class="ncls-1" d="M47.335 130.918a74.87 74.87 0 0 1 5.386 5.418 15.745 15.745 0 0 1 1.931 2.782c.742 1.438.07 3.019-1.219 3.105H45.42a6.186 6.186 0 0 1-5.1-2.073c-1.109-1.13-2.137-2.333-3.2-3.5a7.591 7.591 0 0 0-1.442-1.282 1.674 1.674 0 0 0-2.668.648 8.419 8.419 0 0 0-.844 3.738c-.086 1.887-.656 2.383-2.551 2.469a20.49 20.49 0 0 1-11.465-2.465 25.332 25.332 0 0 1-7.715-7.223 97.244 97.244 0 0 1-10.153-18.1c-.641-1.427-.172-2.192 1.4-2.22 2.614-.051 5.227-.047 7.844 0a2.3 2.3 0 0 1 2.176 1.629 48.627 48.627 0 0 0 5.317 9.852 8.4 8.4 0 0 0 2.008 2.208 1.221 1.221 0 0 0 2.074-.61 6.838 6.838 0 0 0 .461-2.066 30.773 30.773 0 0 0-.129-7.243 3.019 3.019 0 0 0-2.571-2.762c-.766-.145-.652-.43-.281-.867a2.881 2.881 0 0 1 2.457-1.223h9.055c1.426.281 1.742.922 1.937 2.356l.008 10.059c-.016.555.277 2.2 1.278 2.571.8.262 1.328-.379 1.809-.886a31.19 31.19 0 0 0 5.1-7.837c.613-1.238 1.141-2.524 1.652-3.809a1.939 1.939 0 0 1 2.047-1.4l8.715.008a4.594 4.594 0 0 1 .77.047c1.469.25 1.871.882 1.417 2.316a21.76 21.76 0 0 1-3.465 6.009c-1.453 2.011-3.008 3.953-4.449 5.976-1.324 1.848-1.219 2.779.426 4.383z" transform="translate(11649 -41.127)"/></symbol><symbol viewBox="11662.068 5291.145 33.095 18.728" id="vk-white" xmlns="http://www.w3.org/2000/svg"><defs><style>.ocls-1{fill:#fff}</style></defs><path id="o_001-vk" data-name="001-vk" class="ocls-1" d="M28.482 123.035a45.049 45.049 0 0 1 3.241 3.26 9.474 9.474 0 0 1 1.162 1.674c.446.865.042 1.817-.733 1.868h-4.821a3.722 3.722 0 0 1-3.07-1.248c-.668-.68-1.286-1.4-1.928-2.106a4.568 4.568 0 0 0-.868-.771 1.008 1.008 0 0 0-1.606.39 5.066 5.066 0 0 0-.508 2.249c-.052 1.135-.395 1.434-1.535 1.486a12.329 12.329 0 0 1-6.9-1.483 15.243 15.243 0 0 1-4.642-4.346 58.513 58.513 0 0 1-6.109-10.89c-.386-.858-.1-1.319.844-1.336 1.573-.031 3.145-.028 4.72 0a1.387 1.387 0 0 1 1.309.98 29.259 29.259 0 0 0 3.2 5.928 5.057 5.057 0 0 0 1.208 1.328.734.734 0 0 0 1.248-.367 4.114 4.114 0 0 0 .278-1.243 18.516 18.516 0 0 0-.077-4.358 1.816 1.816 0 0 0-1.547-1.662c-.461-.087-.392-.259-.169-.522a1.733 1.733 0 0 1 1.479-.736h5.449c.858.169 1.048.555 1.166 1.418v6.052c-.009.334.167 1.326.769 1.547.482.157.8-.228 1.088-.533a18.768 18.768 0 0 0 3.07-4.714c.369-.745.687-1.519.994-2.292a1.167 1.167 0 0 1 1.232-.843h5.244a2.765 2.765 0 0 1 .463.028c.884.151 1.126.531.853 1.394A13.093 13.093 0 0 1 30.9 116.8c-.875 1.21-1.81 2.379-2.677 3.6-.8 1.112-.734 1.672.256 2.638z" transform="translate(11662.068 5180.018)"/></symbol><symbol viewBox="11724 66 55 38.919" id="youtube" xmlns="http://www.w3.org/2000/svg"><defs><style>.pcls-1{fill:#f61c0d}</style></defs><path id="p_002-youtube" data-name="002-youtube" class="pcls-1" d="M43.577 67.393H11.423A11.423 11.423 0 0 0 0 78.816V94.89a11.423 11.423 0 0 0 11.423 11.423h32.154A11.423 11.423 0 0 0 55 94.89V78.816a11.423 11.423 0 0 0-11.423-11.423zm-7.725 20.242l-15.04 7.173a.6.6 0 0 1-.864-.545V79.468a.6.6 0 0 1 .877-.539l15.04 7.621a.6.6 0 0 1-.013 1.085z" transform="translate(11724 -1.393)"/></symbol><symbol viewBox="11707.196 5288.738 33.094 23.418" id="youtube-white" xmlns="http://www.w3.org/2000/svg"><defs><style>.qcls-1{fill:#fff}</style></defs><path id="q_002-youtube" data-name="002-youtube" class="qcls-1" d="M26.221 67.393H6.873A6.873 6.873 0 0 0 0 74.266v9.672a6.873 6.873 0 0 0 6.873 6.873h19.348a6.873 6.873 0 0 0 6.873-6.873v-9.672a6.873 6.873 0 0 0-6.873-6.873zm-4.648 12.18l-9.05 4.316a.363.363 0 0 1-.52-.328v-8.9a.363.363 0 0 1 .527-.324l9.05 4.586a.363.363 0 0 1-.007.65z" transform="translate(11707.197 5221.345)"/></symbol></svg>